G04 DipTrace 2.4.0.2*
%INBottom.gbr*%
%MOIN*%
%ADD13C,0.015*%
%ADD14C,0.04*%
%ADD15C,0.0591*%
%ADD16C,0.0492*%
%ADD19C,0.025*%
%ADD25R,0.0591X0.0591*%
%ADD26C,0.0591*%
%ADD28R,0.0492X0.0492*%
%ADD31R,0.0669X0.0669*%
%ADD32C,0.0669*%
%FSLAX44Y44*%
G04*
G70*
G90*
G75*
G01*
%LNBottom*%
%LPD*%
X8631Y16462D2*
D14*
X10193Y14900D1*
D15*
Y7785D1*
D14*
Y7290D1*
X8633Y16997D2*
X8983Y16646D1*
D15*
X10701Y14928D1*
Y7785D1*
D14*
Y7290D1*
X8629Y17527D2*
X9124D1*
D15*
X22472D1*
X25337Y14663D1*
Y13981D1*
D14*
X25361Y13957D1*
X8633Y18060D2*
X9128D1*
D15*
X22642D1*
X25811Y14890D1*
Y13979D1*
D14*
X25786Y13953D1*
X16466Y15530D2*
D13*
X16350D1*
X13502Y12682D1*
X13468D1*
X16466Y15530D2*
Y14352D1*
X18475Y12343D1*
X22049D1*
X23390Y11002D1*
X20704Y4603D2*
Y7543D1*
X21459Y8298D1*
X18932Y15197D2*
Y16263D1*
X19287Y16618D1*
X21515D1*
X21910Y16223D1*
Y16103D1*
X19085Y14639D2*
X19546Y15099D1*
Y16103D1*
X16751Y12538D2*
Y5684D1*
X17707Y4729D1*
Y4606D1*
X17704Y4603D1*
X15660Y13653D2*
X16173D1*
X17190Y12636D1*
Y12337D1*
X17039Y12185D1*
Y6353D1*
X18672Y4719D1*
Y4635D1*
X18704Y4603D1*
X17747Y12453D2*
Y12481D1*
X16075Y14152D1*
X15519D1*
X13973Y12606D1*
Y8585D1*
X11018Y5631D1*
X8649D1*
X7929Y6351D1*
Y6374D1*
X16875Y14555D2*
X18758Y12672D1*
X27278D1*
X28991Y14386D1*
X18058Y12016D2*
X20896D1*
X26565Y6347D1*
X26583D1*
X18008Y7085D2*
X17874D1*
Y11457D1*
X17392Y11375D2*
Y6786D1*
X17880Y6297D1*
X18008D1*
X16121Y5599D2*
Y9716D1*
D14*
X21459Y8298D3*
X18932Y15197D3*
X19085Y14639D3*
X16751Y12538D3*
X15660Y13653D3*
X17747Y12453D3*
X16875Y14555D3*
X28991Y14386D3*
X18058Y12016D3*
X17874Y11457D3*
X17392Y11375D3*
X16121Y5599D3*
Y9716D3*
X29238Y11154D3*
X28820Y8254D3*
X19951Y10745D3*
X15195Y10667D3*
X18405Y11403D3*
X6033Y12018D3*
X5992Y9462D3*
X8381Y15269D3*
X8633Y18060D3*
X10701Y7290D3*
X16466Y15530D3*
X13468Y12682D3*
X23390Y11002D3*
X8629Y17527D3*
X8633Y16997D3*
X8631Y16462D3*
X25786Y13953D3*
X25361Y13957D3*
X10193Y7290D3*
X14643Y8904D3*
X4347Y18000D2*
D19*
X8146D1*
X23517D2*
X31006D1*
X4347Y17752D2*
X5154D1*
X6657D2*
X8197D1*
X23767D2*
X28701D1*
X30204D2*
X31006D1*
X4347Y17503D2*
X4877D1*
X6935D2*
X8139D1*
X24017D2*
X28424D1*
X30482D2*
X31006D1*
X4347Y17254D2*
X4713D1*
X7099D2*
X8221D1*
X24263D2*
X28260D1*
X30646D2*
X31006D1*
X4347Y17006D2*
X4619D1*
X7193D2*
X8143D1*
X24513D2*
X28166D1*
X30739D2*
X31006D1*
X4347Y16757D2*
X4576D1*
X7236D2*
X8209D1*
X9689D2*
X18920D1*
X21880D2*
X22424D1*
X24763D2*
X28123D1*
X30782D2*
X31006D1*
X4347Y16508D2*
X4584D1*
X7228D2*
X8143D1*
X9939D2*
X18670D1*
X22446D2*
X22674D1*
X25009D2*
X28131D1*
X30775D2*
X31006D1*
X4347Y16260D2*
X4639D1*
X7173D2*
X8186D1*
X10189D2*
X18568D1*
X20845D2*
X21369D1*
X22446D2*
X22924D1*
X25259D2*
X28186D1*
X30720D2*
X31006D1*
X4347Y16011D2*
X4748D1*
X7064D2*
X8400D1*
X10435D2*
X18568D1*
X20861D2*
X21373D1*
X22446D2*
X23170D1*
X25509D2*
X28295D1*
X30607D2*
X31006D1*
X4347Y15762D2*
X4936D1*
X6876D2*
X8646D1*
X10685D2*
X16037D1*
X16896D2*
X18568D1*
X20739D2*
X21373D1*
X22446D2*
X23420D1*
X25755D2*
X28482D1*
X30423D2*
X31006D1*
X4347Y15513D2*
X5264D1*
X6548D2*
X8896D1*
X10935D2*
X15826D1*
X16954D2*
X18564D1*
X19911D2*
X23670D1*
X26005D2*
X28811D1*
X30095D2*
X31006D1*
X4347Y15265D2*
X9146D1*
X11173D2*
X15580D1*
X16872D2*
X18447D1*
X19911D2*
X23916D1*
X26251D2*
X31006D1*
X4347Y15016D2*
X9393D1*
X11278D2*
X15330D1*
X16962D2*
X18478D1*
X19900D2*
X24166D1*
X26384D2*
X31006D1*
X4347Y14767D2*
X9607D1*
X11286D2*
X15080D1*
X17314D2*
X18615D1*
X19720D2*
X24416D1*
X26396D2*
X28701D1*
X29282D2*
X31006D1*
X4347Y14519D2*
X9607D1*
X11286D2*
X14834D1*
X17415D2*
X18611D1*
X19560D2*
X24662D1*
X26396D2*
X28521D1*
X29462D2*
X31006D1*
X4347Y14270D2*
X9607D1*
X11286D2*
X14584D1*
X17665D2*
X18775D1*
X19392D2*
X24752D1*
X26396D2*
X28369D1*
X29466D2*
X31006D1*
X4347Y14021D2*
X9607D1*
X11286D2*
X14334D1*
X17915D2*
X24752D1*
X26396D2*
X28123D1*
X29306D2*
X31006D1*
X4347Y13773D2*
X9607D1*
X11286D2*
X14088D1*
X18161D2*
X24791D1*
X26357D2*
X27873D1*
X28884D2*
X31006D1*
X4347Y13524D2*
X9607D1*
X11286D2*
X13838D1*
X18411D2*
X24986D1*
X26165D2*
X27623D1*
X28634D2*
X31006D1*
X4347Y13275D2*
X9607D1*
X11286D2*
X13588D1*
X15146D2*
X15365D1*
X18661D2*
X27377D1*
X28388D2*
X31006D1*
X5544Y13027D2*
X9607D1*
X11286D2*
X13131D1*
X14900D2*
X16295D1*
X18907D2*
X27127D1*
X28138D2*
X31006D1*
X5544Y12778D2*
X9607D1*
X11286D2*
X12986D1*
X14650D2*
X16326D1*
X27888D2*
X31006D1*
X5544Y12529D2*
X9607D1*
X11286D2*
X13006D1*
X14400D2*
X16260D1*
X27642D2*
X31006D1*
X5544Y12281D2*
X9607D1*
X11286D2*
X13209D1*
X14337D2*
X16338D1*
X22618D2*
X31006D1*
X4347Y12032D2*
X4514D1*
X5403D2*
X9607D1*
X11286D2*
X13607D1*
X14337D2*
X16385D1*
X22864D2*
X31006D1*
X5528Y11783D2*
X9607D1*
X11286D2*
X13607D1*
X14337D2*
X16385D1*
X21634D2*
X22103D1*
X23114D2*
X30045D1*
X5528Y11534D2*
X9607D1*
X11286D2*
X13607D1*
X14337D2*
X16385D1*
X18357D2*
X20873D1*
X21884D2*
X22353D1*
X23364D2*
X29908D1*
X4347Y11286D2*
X4518D1*
X5400D2*
X9607D1*
X11286D2*
X13607D1*
X14337D2*
X16385D1*
X18333D2*
X21119D1*
X22130D2*
X22600D1*
X23782D2*
X29900D1*
X4347Y11037D2*
X4502D1*
X5407D2*
X9607D1*
X11286D2*
X13607D1*
X14337D2*
X16385D1*
X18239D2*
X21369D1*
X22380D2*
X22850D1*
X23880D2*
X30018D1*
X5528Y10788D2*
X9607D1*
X11286D2*
X13607D1*
X14337D2*
X16385D1*
X18239D2*
X21619D1*
X22630D2*
X22951D1*
X23829D2*
X30033D1*
X5525Y10540D2*
X9607D1*
X11286D2*
X13607D1*
X14337D2*
X16385D1*
X18239D2*
X21865D1*
X22876D2*
X29904D1*
X4347Y10291D2*
X4525D1*
X5388D2*
X9607D1*
X11286D2*
X13607D1*
X14337D2*
X16385D1*
X18239D2*
X22115D1*
X23126D2*
X29900D1*
X4347Y10042D2*
X4494D1*
X5419D2*
X9607D1*
X11286D2*
X13607D1*
X14337D2*
X15764D1*
X18239D2*
X22365D1*
X23376D2*
X30029D1*
X5532Y9794D2*
X9607D1*
X11286D2*
X13607D1*
X14337D2*
X15639D1*
X18239D2*
X22611D1*
X23622D2*
X30021D1*
X5521Y9545D2*
X9607D1*
X11286D2*
X13607D1*
X14337D2*
X15662D1*
X18239D2*
X22861D1*
X23872D2*
X29900D1*
X4347Y9296D2*
X4537D1*
X5376D2*
X9607D1*
X11286D2*
X13607D1*
X14337D2*
X15756D1*
X18239D2*
X23111D1*
X24122D2*
X29904D1*
X4347Y9048D2*
X9607D1*
X11286D2*
X13607D1*
X14337D2*
X15756D1*
X18239D2*
X23357D1*
X24368D2*
X30037D1*
X4347Y8799D2*
X9607D1*
X11286D2*
X13607D1*
X14337D2*
X15756D1*
X18239D2*
X23607D1*
X24618D2*
X29885D1*
X4347Y8550D2*
X9607D1*
X11286D2*
X13432D1*
X14337D2*
X15756D1*
X18239D2*
X21045D1*
X21872D2*
X23857D1*
X24868D2*
X29885D1*
X4347Y8302D2*
X9607D1*
X11286D2*
X13186D1*
X14196D2*
X15756D1*
X18239D2*
X20959D1*
X21950D2*
X24103D1*
X25114D2*
X29885D1*
X4347Y8053D2*
X9607D1*
X11286D2*
X12936D1*
X13946D2*
X15756D1*
X18239D2*
X20709D1*
X21880D2*
X24353D1*
X25364D2*
X29885D1*
X4347Y7804D2*
X9607D1*
X11286D2*
X12686D1*
X13696D2*
X15756D1*
X18239D2*
X20459D1*
X21470D2*
X24603D1*
X25614D2*
X31006D1*
X4347Y7555D2*
X9658D1*
X11236D2*
X12439D1*
X13450D2*
X15756D1*
X18595D2*
X20338D1*
X21224D2*
X24850D1*
X25861D2*
X31006D1*
X4347Y7307D2*
X9701D1*
X11193D2*
X12189D1*
X13200D2*
X15756D1*
X18595D2*
X20338D1*
X21068D2*
X25100D1*
X26111D2*
X31006D1*
X4347Y7058D2*
X5268D1*
X6544D2*
X9764D1*
X11130D2*
X11939D1*
X12950D2*
X15756D1*
X18595D2*
X20338D1*
X21068D2*
X25350D1*
X26361D2*
X28818D1*
X30087D2*
X31006D1*
X4347Y6809D2*
X4939D1*
X6872D2*
X7393D1*
X8466D2*
X11693D1*
X12704D2*
X15756D1*
X18595D2*
X20338D1*
X21068D2*
X25596D1*
X27118D2*
X28486D1*
X30419D2*
X31006D1*
X4347Y6561D2*
X4752D1*
X7060D2*
X7393D1*
X8466D2*
X11443D1*
X12454D2*
X15756D1*
X18595D2*
X20338D1*
X21068D2*
X25846D1*
X27118D2*
X28299D1*
X30607D2*
X31006D1*
X4347Y6312D2*
X4639D1*
X7173D2*
X7393D1*
X8474D2*
X11193D1*
X12204D2*
X15756D1*
X18591D2*
X20338D1*
X21068D2*
X26049D1*
X27118D2*
X28186D1*
X30720D2*
X31006D1*
X4347Y6063D2*
X4584D1*
X7228D2*
X7395D1*
X8720D2*
X10947D1*
X11958D2*
X15756D1*
X18540D2*
X20338D1*
X21068D2*
X26049D1*
X27118D2*
X28131D1*
X30775D2*
X31006D1*
X4347Y5815D2*
X4576D1*
X7236D2*
X7959D1*
X11708D2*
X15686D1*
X18318D2*
X20338D1*
X21068D2*
X28123D1*
X30782D2*
X31006D1*
X4347Y5566D2*
X4619D1*
X7193D2*
X8209D1*
X11458D2*
X15631D1*
X18329D2*
X20338D1*
X21068D2*
X28162D1*
X30739D2*
X31006D1*
X4347Y5317D2*
X4713D1*
X7099D2*
X8490D1*
X11173D2*
X15725D1*
X18579D2*
X20338D1*
X21068D2*
X28256D1*
X30646D2*
X31006D1*
X4347Y5069D2*
X4877D1*
X6935D2*
X16303D1*
X19107D2*
X20303D1*
X22329D2*
X28420D1*
X30486D2*
X31006D1*
X4347Y4820D2*
X5150D1*
X6661D2*
X16119D1*
X19286D2*
X20119D1*
X22329D2*
X28693D1*
X30212D2*
X31006D1*
X4347Y4571D2*
X16080D1*
X19329D2*
X20080D1*
X22329D2*
X31006D1*
X4347Y4323D2*
X16150D1*
X19259D2*
X20150D1*
X22329D2*
X31006D1*
X18217Y7645D2*
X18568D1*
Y6525D1*
X18517D1*
X18550Y6441D1*
X18568Y6297D1*
X18554Y6173D1*
X18513Y6056D1*
X18447Y5950D1*
X18359Y5861D1*
X18254Y5794D1*
X18125Y5751D1*
X18668Y5204D1*
X18754Y5201D1*
X18876Y5178D1*
X18992Y5130D1*
X19094Y5059D1*
X19180Y4968D1*
X19245Y4862D1*
X19287Y4744D1*
X19304Y4603D1*
X19291Y4479D1*
X19252Y4360D1*
X19231Y4323D1*
X20177Y4322D1*
X20120Y4471D1*
X20105Y4595D1*
X20116Y4719D1*
X20153Y4838D1*
X20213Y4947D1*
X20295Y5041D1*
X20367Y5096D1*
X20364Y6228D1*
Y7543D1*
X20387Y7665D1*
X20464Y7783D1*
X20997Y8316D1*
X21023Y8459D1*
X21081Y8569D1*
X21167Y8659D1*
X21273Y8724D1*
X21393Y8758D1*
X21518Y8759D1*
X21638Y8726D1*
X21746Y8663D1*
X21833Y8574D1*
X21893Y8465D1*
X21924Y8298D1*
X21907Y8174D1*
X21858Y8059D1*
X21781Y7962D1*
X21680Y7888D1*
X21563Y7844D1*
X21482Y7837D1*
X21045Y7403D1*
X21044Y5094D1*
X21102Y5050D1*
X21105Y5203D1*
X22304D1*
Y4324D1*
X23947Y4322D1*
X31032D1*
Y10373D1*
X31020Y10288D1*
X30979Y10170D1*
X30913Y10065D1*
X30825Y9976D1*
X30737Y9920D1*
X30808Y9877D1*
X30899Y9791D1*
X30968Y9688D1*
X31014Y9572D1*
X31032Y9428D1*
X31018Y9305D1*
X30977Y9187D1*
X30911Y9081D1*
X30832Y9001D1*
X31031Y9003D1*
Y7883D1*
X29911D1*
Y9003D1*
X30110D1*
X30039Y9073D1*
X29971Y9178D1*
X29928Y9295D1*
X29912Y9419D1*
X29924Y9543D1*
X29962Y9661D1*
X30027Y9768D1*
X30113Y9858D1*
X30207Y9921D1*
X30130Y9970D1*
X30041Y10057D1*
X29973Y10162D1*
X29930Y10279D1*
X29914Y10402D1*
X29926Y10527D1*
X29964Y10645D1*
X30029Y10752D1*
X30115Y10842D1*
X30209Y10905D1*
X30130Y10953D1*
X30041Y11040D1*
X29973Y11145D1*
X29930Y11262D1*
X29914Y11385D1*
X29926Y11510D1*
X29964Y11628D1*
X30029Y11735D1*
X30115Y11825D1*
X30219Y11894D1*
X30336Y11938D1*
X30459Y11955D1*
X30583Y11945D1*
X30702Y11907D1*
X30810Y11844D1*
X30901Y11758D1*
X30970Y11655D1*
X31016Y11539D1*
X31032Y11447D1*
Y18249D1*
X23247D1*
X26208Y15286D1*
X26285Y15189D1*
X26340Y15077D1*
X26368Y14951D1*
X26372Y14515D1*
Y13979D1*
X26358Y13855D1*
X26317Y13737D1*
X26251Y13631D1*
X26163Y13542D1*
X26058Y13475D1*
X25940Y13433D1*
X25816Y13418D1*
X25692Y13431D1*
X25571Y13473D1*
X25465Y13435D1*
X25342Y13420D1*
X25218Y13433D1*
X25099Y13473D1*
X24993Y13538D1*
X24904Y13625D1*
X24836Y13730D1*
X24793Y13847D1*
X24776Y13981D1*
Y14430D1*
X22242Y16965D1*
X19347Y16967D1*
X9453D1*
X11097Y15324D1*
X11175Y15227D1*
X11229Y15114D1*
X11258Y14989D1*
X11261Y14553D1*
Y7785D1*
X11248Y7661D1*
X11207Y7544D1*
X11167Y7481D1*
X11166Y7290D1*
X11149Y7167D1*
X11101Y7052D1*
X11023Y6955D1*
X10922Y6881D1*
X10806Y6837D1*
X10682Y6826D1*
X10414Y6881D1*
X10297Y6837D1*
X10173Y6826D1*
X10050Y6848D1*
X9938Y6901D1*
X9844Y6983D1*
X9775Y7087D1*
X9735Y7205D1*
X9728Y7415D1*
Y7474D1*
X9692Y7535D1*
X9649Y7652D1*
X9632Y7785D1*
Y14803D1*
X8302Y16133D1*
X8226Y16232D1*
X8180Y16348D1*
X8166Y16472D1*
X8185Y16595D1*
X8239Y16712D1*
X8228Y16767D1*
X8182Y16883D1*
X8168Y17006D1*
X8187Y17130D1*
X8241Y17246D1*
X8176Y17423D1*
X8164Y17547D1*
X8186Y17670D1*
X8242Y17785D1*
X8180Y17955D1*
X8168Y18080D1*
X8198Y18224D1*
X8157Y18249D1*
X4322D1*
Y4322D1*
X16177D1*
X16120Y4471D1*
X16105Y4595D1*
X16116Y4719D1*
X16153Y4838D1*
X16213Y4947D1*
X16295Y5041D1*
X16395Y5117D1*
X16508Y5170D1*
X16629Y5198D1*
X16758Y5200D1*
X16544Y5410D1*
X16520Y5361D1*
X16443Y5263D1*
X16342Y5190D1*
X16225Y5146D1*
X16101Y5134D1*
X15979Y5156D1*
X15866Y5210D1*
X15772Y5291D1*
X15703Y5395D1*
X15664Y5514D1*
X15658Y5638D1*
X15685Y5760D1*
X15743Y5870D1*
X15783Y5912D1*
X15781Y7724D1*
Y9399D1*
X15703Y9512D1*
X15664Y9631D1*
X15658Y9755D1*
X15685Y9877D1*
X15743Y9987D1*
X15829Y10077D1*
X15935Y10142D1*
X16055Y10176D1*
X16180Y10177D1*
X16300Y10145D1*
X16410Y10079D1*
X16411Y12220D1*
X16333Y12335D1*
X16294Y12453D1*
X16288Y12578D1*
X16315Y12699D1*
X16374Y12809D1*
X16451Y12892D1*
X16030Y13316D1*
X15765Y13200D1*
X15640Y13189D1*
X15518Y13211D1*
X15405Y13265D1*
X15311Y13346D1*
X15266Y13414D1*
X14698Y12851D1*
X14314Y12467D1*
X14313Y8585D1*
X14290Y8463D1*
X14213Y8344D1*
X11259Y5390D1*
X11156Y5320D1*
X11018Y5291D1*
X8649D1*
X8526Y5313D1*
X8408Y5390D1*
X7936Y5863D1*
X7418D1*
Y6885D1*
X8439D1*
Y6318D1*
X8790Y5970D1*
X10879D1*
X13631Y8724D1*
X13633Y12245D1*
X13572Y12229D1*
X13448Y12217D1*
X13326Y12239D1*
X13213Y12293D1*
X13119Y12375D1*
X13050Y12479D1*
X13011Y12597D1*
X13005Y12721D1*
X13032Y12843D1*
X13090Y12953D1*
X13176Y13044D1*
X13282Y13108D1*
X13402Y13142D1*
X13484Y13143D1*
X16030Y15692D1*
X16088Y15802D1*
X16174Y15892D1*
X16280Y15957D1*
X16400Y15991D1*
X16525Y15992D1*
X16645Y15959D1*
X16753Y15896D1*
X16840Y15807D1*
X16900Y15698D1*
X16931Y15530D1*
X16914Y15407D1*
X16865Y15292D1*
X16805Y15216D1*
X16809Y15016D1*
X16934D1*
X17054Y14984D1*
X17162Y14921D1*
X17248Y14832D1*
X17308Y14723D1*
X17339Y14571D1*
X18897Y13014D1*
X22008Y13012D1*
X27137D1*
X28526Y14401D1*
X28555Y14547D1*
X28613Y14657D1*
X28699Y14747D1*
X28806Y14812D1*
X28925Y14846D1*
X29050Y14847D1*
X29170Y14814D1*
X29278Y14751D1*
X29365Y14662D1*
X29425Y14553D1*
X29456Y14386D1*
X29439Y14262D1*
X29390Y14147D1*
X29313Y14050D1*
X29212Y13976D1*
X29095Y13932D1*
X29014Y13925D1*
X27518Y12432D1*
X27415Y12361D1*
X27278Y12332D1*
X22539D1*
X23408Y11465D1*
X23449Y11464D1*
X23569Y11431D1*
X23677Y11368D1*
X23764Y11279D1*
X23824Y11170D1*
X23855Y11002D1*
X23838Y10879D1*
X23789Y10764D1*
X23712Y10667D1*
X23611Y10593D1*
X23494Y10549D1*
X23370Y10538D1*
X23247Y10560D1*
X23135Y10614D1*
X23041Y10695D1*
X22972Y10799D1*
X22933Y10917D1*
X22929Y10983D1*
X21909Y12002D1*
X21389Y12003D1*
X26537Y6856D1*
X27094Y6858D1*
Y5836D1*
X26072D1*
Y6363D1*
X25618Y6813D1*
X20754Y11678D1*
X18377Y11676D1*
X18337Y11503D1*
X18323Y11334D1*
X18274Y11219D1*
X18213Y11143D1*
X18214Y7649D1*
X21996Y16614D2*
X22421D1*
Y15592D1*
X21399D1*
Y16252D1*
X21265Y16278D1*
X20816D1*
X20837Y16188D1*
X20844Y16103D1*
X20829Y15979D1*
X20784Y15863D1*
X20713Y15760D1*
X20619Y15679D1*
X20507Y15622D1*
X20386Y15594D1*
X20261Y15597D1*
X20141Y15629D1*
X20032Y15690D1*
X19939Y15779D1*
X19887Y15727D1*
X19886Y15099D1*
X19863Y14977D1*
X19786Y14859D1*
X19551Y14624D1*
X19533Y14515D1*
X19484Y14401D1*
X19407Y14303D1*
X19306Y14230D1*
X19190Y14186D1*
X19065Y14174D1*
X18943Y14196D1*
X18830Y14250D1*
X18736Y14332D1*
X18667Y14435D1*
X18628Y14554D1*
X18622Y14678D1*
X18658Y14817D1*
X18583Y14890D1*
X18514Y14994D1*
X18474Y15112D1*
X18468Y15237D1*
X18495Y15358D1*
X18554Y15468D1*
X18594Y15511D1*
X18592Y16263D1*
X18614Y16385D1*
X18691Y16503D1*
X19046Y16858D1*
X19149Y16928D1*
X19287Y16958D1*
X21515D1*
X21637Y16935D1*
X21755Y16858D1*
X22001Y16612D1*
X4524Y13205D2*
X5519D1*
Y12085D1*
X5320D1*
X5385Y12022D1*
X5455Y11919D1*
X5500Y11803D1*
X5519Y11660D1*
X5505Y11536D1*
X5464Y11418D1*
X5398Y11312D1*
X5310Y11223D1*
X5221Y11167D1*
X5292Y11124D1*
X5383Y11039D1*
X5453Y10935D1*
X5498Y10819D1*
X5516Y10676D1*
X5503Y10552D1*
X5462Y10434D1*
X5396Y10328D1*
X5308Y10240D1*
X5226Y10187D1*
X5292Y10141D1*
X5383Y10056D1*
X5453Y9952D1*
X5498Y9836D1*
X5516Y9693D1*
X5503Y9569D1*
X5462Y9451D1*
X5396Y9345D1*
X5308Y9257D1*
X5203Y9190D1*
X5085Y9148D1*
X4961Y9133D1*
X4837Y9145D1*
X4719Y9185D1*
X4613Y9250D1*
X4523Y9337D1*
X4455Y9442D1*
X4412Y9559D1*
X4396Y9683D1*
X4408Y9807D1*
X4447Y9926D1*
X4511Y10033D1*
X4597Y10123D1*
X4691Y10185D1*
X4613Y10233D1*
X4523Y10320D1*
X4455Y10425D1*
X4412Y10542D1*
X4396Y10666D1*
X4408Y10790D1*
X4447Y10909D1*
X4511Y11016D1*
X4597Y11106D1*
X4691Y11168D1*
X4615Y11217D1*
X4525Y11304D1*
X4457Y11409D1*
X4414Y11526D1*
X4398Y11650D1*
X4410Y11774D1*
X4449Y11892D1*
X4513Y11999D1*
X4596Y12087D1*
X4399Y12085D1*
Y13205D1*
X4524D1*
X30739Y10902D2*
X30810Y10861D1*
X30901Y10775D1*
X30970Y10672D1*
X31016Y10555D1*
X31032Y10444D1*
X31033Y11384D1*
X31020Y11271D1*
X30979Y11154D1*
X30913Y11048D1*
X30825Y10959D1*
X30743Y10907D1*
X7207Y16541D2*
X7160Y16296D1*
X7067Y16064D1*
X6931Y15854D1*
X6758Y15674D1*
X6554Y15530D1*
X6327Y15428D1*
X6084Y15370D1*
X5835Y15360D1*
X5588Y15397D1*
X5353Y15481D1*
X5137Y15608D1*
X4950Y15773D1*
X4798Y15971D1*
X4686Y16194D1*
X4619Y16434D1*
X4599Y16683D1*
X4626Y16931D1*
X4700Y17170D1*
X4817Y17390D1*
X4975Y17583D1*
X5166Y17744D1*
X5385Y17865D1*
X5622Y17942D1*
X5870Y17972D1*
X6119Y17955D1*
X6360Y17891D1*
X6585Y17783D1*
X6785Y17633D1*
X6953Y17449D1*
X7082Y17235D1*
X7169Y17001D1*
X7210Y16755D1*
X7207Y16541D1*
Y5779D2*
X7160Y5534D1*
X7067Y5302D1*
X6931Y5093D1*
X6758Y4913D1*
X6554Y4769D1*
X6327Y4666D1*
X6084Y4609D1*
X5835Y4598D1*
X5588Y4636D1*
X5353Y4719D1*
X5137Y4846D1*
X4950Y5011D1*
X4798Y5209D1*
X4686Y5432D1*
X4619Y5673D1*
X4599Y5921D1*
X4626Y6170D1*
X4700Y6408D1*
X4817Y6628D1*
X4975Y6822D1*
X5166Y6982D1*
X5385Y7103D1*
X5622Y7180D1*
X5870Y7211D1*
X6119Y7194D1*
X6360Y7130D1*
X6585Y7021D1*
X6785Y6872D1*
X6953Y6687D1*
X7082Y6474D1*
X7169Y6240D1*
X7210Y5993D1*
X7207Y5779D1*
X30753Y16541D2*
X30706Y16296D1*
X30613Y16064D1*
X30477Y15854D1*
X30304Y15674D1*
X30100Y15530D1*
X29873Y15428D1*
X29630Y15370D1*
X29381Y15360D1*
X29134Y15397D1*
X28899Y15481D1*
X28684Y15608D1*
X28496Y15773D1*
X28344Y15971D1*
X28232Y16194D1*
X28165Y16434D1*
X28145Y16683D1*
X28172Y16931D1*
X28246Y17170D1*
X28363Y17390D1*
X28521Y17583D1*
X28712Y17744D1*
X28931Y17865D1*
X29168Y17942D1*
X29416Y17972D1*
X29665Y17955D1*
X29906Y17891D1*
X30131Y17783D1*
X30331Y17633D1*
X30499Y17449D1*
X30629Y17235D1*
X30715Y17001D1*
X30756Y16755D1*
X30753Y16541D1*
Y5777D2*
X30706Y5532D1*
X30613Y5300D1*
X30477Y5091D1*
X30304Y4911D1*
X30100Y4767D1*
X29873Y4664D1*
X29630Y4607D1*
X29381Y4596D1*
X29134Y4634D1*
X28899Y4717D1*
X28684Y4844D1*
X28496Y5009D1*
X28344Y5207D1*
X28232Y5430D1*
X28165Y5671D1*
X28145Y5919D1*
X28172Y6168D1*
X28246Y6406D1*
X28363Y6626D1*
X28521Y6820D1*
X28712Y6980D1*
X28931Y7101D1*
X29168Y7178D1*
X29416Y7209D1*
X29665Y7192D1*
X29906Y7128D1*
X30131Y7019D1*
X30331Y6870D1*
X30499Y6685D1*
X30629Y6472D1*
X30715Y6238D1*
X30756Y5991D1*
X30753Y5777D1*
D25*
X18008Y7085D3*
D26*
Y6297D3*
X18795D3*
Y7085D3*
D28*
X7929Y6374D3*
D16*
X8716Y6373D3*
D28*
X26583Y6347D3*
D16*
X27370Y6346D3*
D25*
X4959Y12645D3*
D15*
X4958Y11660D3*
X4956Y10676D3*
Y9693D3*
D25*
X30471Y8443D3*
D15*
X30472Y9428D3*
X30474Y10412D3*
Y11395D3*
D31*
X21704Y4603D3*
D32*
X20704D3*
X19704D3*
X18704D3*
X17704D3*
X16704D3*
D28*
X21910Y16103D3*
D16*
X21123Y16104D3*
X20333Y16103D3*
X19546D3*
M02*
