M48
INCH
T01C0.0191
T02C0.0295
T03C0.0354
T04C0.0374
T05C0.0433
T06C0.128
%
T01
X+029238Y+011154
X+028820Y+008254
X+023390Y+011002
X+021459Y+008298
X+019951Y+010745
X+018405Y+011403
X+017874Y+011457
X+017392Y+011375
X+018058Y+012016
X+017747Y+012453
X+016751Y+012538
X+015660Y+013653
X+016875Y+014555
X+016466Y+015530
X+018932Y+015197
X+019085Y+014639
X+015195Y+010667
X+016121Y+009716
X+014643Y+008904
X+016121Y+005599
X+010701Y+007290
X+010193Y+007290
X+005992Y+009462
X+006033Y+012018
X+008381Y+015269
X+008631Y+016462
X+008633Y+016997
X+008629Y+017527
X+008633Y+018060
X+013468Y+012682
X+025361Y+013957
X+025786Y+013953
X+028991Y+014386
T02
X+007929Y+006374
X+008716Y+006373
X+019546Y+016103
X+020333Y+016103
X+021123Y+016104
X+021910Y+016103
X+026583Y+006347
X+027370Y+006346
T03
X+018008Y+007085
X+018008Y+006297
X+018795Y+006297
X+018795Y+007085
T04
X+004959Y+012645
X+004958Y+011660
X+004956Y+010676
X+004956Y+009693
X+030472Y+009428
X+030474Y+010412
X+030474Y+011395
X+030471Y+008443
T05
X+021704Y+004603
X+020704Y+004603
X+019704Y+004603
X+018704Y+004603
X+017704Y+004603
X+016704Y+004603
T06
X+005906Y+016666
X+005906Y+005904
X+029452Y+005902
X+029452Y+016666
T00
M30
