G04 DipTrace 2.4.0.2*
%INTopMask.gbr*%
%MOIN*%
%ADD37C,0.128*%
%ADD45R,0.0868X0.0317*%
%ADD47R,0.0513X0.0317*%
%ADD49C,0.075*%
%ADD51R,0.075X0.075*%
%ADD54C,0.067*%
%ADD55R,0.0592X0.0671*%
%ADD58C,0.0572*%
%ADD60R,0.0572X0.0572*%
%ADD62R,0.0868X0.2167*%
%ADD64C,0.0671*%
%ADD66R,0.0671X0.0671*%
%ADD68R,0.1025X0.138*%
%ADD70R,0.168X0.064*%
%ADD72R,0.0474X0.0513*%
%ADD74R,0.0513X0.0474*%
%FSLAX44Y44*%
G04*
G70*
G90*
G75*
G01*
%LNTopMask*%
%LPD*%
D74*
X12706Y15159D3*
X13375D3*
D72*
X15852Y15479D3*
Y14809D3*
D74*
X17601Y14715D3*
X18270D3*
X17599Y14210D3*
X18268D3*
X16069Y8908D3*
X15400D3*
X13372Y11713D3*
X14041D3*
X21485Y9291D3*
X20816D3*
D72*
X10454Y5702D3*
Y5033D3*
D74*
X27078Y13612D3*
X27747D3*
D70*
X23801Y15249D3*
X26401D3*
X14743Y6020D3*
X12143D3*
D72*
X13909Y9971D3*
Y10640D3*
X20817Y11050D3*
Y10381D3*
X15177Y12022D3*
Y11352D3*
X19668Y8976D3*
Y9645D3*
X6844Y12908D3*
Y12239D3*
D74*
X27609Y8266D3*
X28278D3*
X7441Y9079D3*
X6772D3*
X27675Y11802D3*
X28344D3*
D68*
X14785Y17280D3*
X17521D3*
D66*
X18008Y7085D3*
D64*
Y6297D3*
X18795D3*
Y7085D3*
D62*
X12528Y17264D3*
X9907Y17263D3*
D37*
X5906Y16666D3*
Y5904D3*
X29452Y16666D3*
Y5902D3*
D60*
X7929Y6374D3*
D58*
X8716Y6373D3*
D60*
X26583Y6347D3*
D58*
X27370Y6346D3*
D66*
X4959Y12645D3*
D54*
X4958Y11660D3*
X4956Y10676D3*
Y9693D3*
D66*
X30471Y8443D3*
D54*
X30472Y9428D3*
X30474Y10412D3*
Y11395D3*
D55*
X5475Y14649D3*
X4727D3*
X30561Y14386D3*
X29813D3*
D51*
X21704Y4603D3*
D49*
X20704D3*
X19704D3*
X18704D3*
X17704D3*
X16704D3*
D55*
X17775Y15658D3*
X17027D3*
D60*
X21910Y16103D3*
D58*
X21123Y16104D3*
X20333Y16103D3*
X19546D3*
D74*
X20543Y13392D3*
X21213D3*
X20170Y15076D3*
X20840D3*
X6654Y14645D3*
X7323D3*
X30529Y13284D3*
X29860D3*
D72*
X7512Y12906D3*
Y12237D3*
X27006Y8240D3*
Y8909D3*
D74*
X6842Y11653D3*
X7511D3*
X28265Y8928D3*
X27596D3*
D72*
X14635Y11350D3*
Y12019D3*
X20202Y9632D3*
Y8963D3*
X13372Y10629D3*
Y9960D3*
X21389Y10368D3*
Y11037D3*
X7982Y9760D3*
Y9090D3*
X27078Y11174D3*
Y11844D3*
D74*
X6754Y9756D3*
X7423D3*
X28342Y11160D3*
X27673D3*
X23757Y4599D3*
X24426D3*
D55*
X20553Y14374D3*
X19805D3*
D47*
X14042Y15540D3*
Y15166D3*
Y14792D3*
X15105D3*
Y15540D3*
G36*
X16226Y10135D2*
X15988D1*
Y10924D1*
X16226D1*
Y10135D1*
G37*
G36*
X16482D2*
X16244D1*
Y10924D1*
X16482D1*
Y10135D1*
G37*
G36*
X16738D2*
X16500D1*
Y10924D1*
X16738D1*
Y10135D1*
G37*
G36*
X16994D2*
X16756D1*
Y10924D1*
X16994D1*
Y10135D1*
G37*
G36*
X17250D2*
X17012D1*
Y10924D1*
X17250D1*
Y10135D1*
G37*
G36*
X17505D2*
X17268D1*
Y10924D1*
X17505D1*
Y10135D1*
G37*
G36*
X17761D2*
X17524D1*
Y10924D1*
X17761D1*
Y10135D1*
G37*
G36*
X18017D2*
X17779D1*
Y10924D1*
X18017D1*
Y10135D1*
G37*
G36*
X18273D2*
X18035D1*
Y10924D1*
X18273D1*
Y10135D1*
G37*
G36*
X18529D2*
X18291D1*
Y10924D1*
X18529D1*
Y10135D1*
G37*
G36*
X18785D2*
X18547D1*
Y10924D1*
X18785D1*
Y10135D1*
G37*
G36*
X19041D2*
X18803D1*
Y10924D1*
X19041D1*
Y10135D1*
G37*
G36*
X19297D2*
X19059D1*
Y10924D1*
X19297D1*
Y10135D1*
G37*
G36*
X19553D2*
X19315D1*
Y10924D1*
X19553D1*
Y10135D1*
G37*
G36*
Y12970D2*
X19315D1*
Y13759D1*
X19553D1*
Y12970D1*
G37*
G36*
X19297D2*
X19059D1*
Y13759D1*
X19297D1*
Y12970D1*
G37*
G36*
X19041D2*
X18803D1*
Y13759D1*
X19041D1*
Y12970D1*
G37*
G36*
X18785D2*
X18547D1*
Y13759D1*
X18785D1*
Y12970D1*
G37*
G36*
X18529D2*
X18291D1*
Y13759D1*
X18529D1*
Y12970D1*
G37*
G36*
X18273D2*
X18035D1*
Y13759D1*
X18273D1*
Y12970D1*
G37*
G36*
X18017D2*
X17779D1*
Y13759D1*
X18017D1*
Y12970D1*
G37*
G36*
X17761D2*
X17524D1*
Y13759D1*
X17761D1*
Y12970D1*
G37*
G36*
X17505D2*
X17268D1*
Y13759D1*
X17505D1*
Y12970D1*
G37*
G36*
X17250D2*
X17012D1*
Y13759D1*
X17250D1*
Y12970D1*
G37*
G36*
X16994D2*
X16756D1*
Y13759D1*
X16994D1*
Y12970D1*
G37*
G36*
X16738D2*
X16500D1*
Y13759D1*
X16738D1*
Y12970D1*
G37*
G36*
X16482D2*
X16244D1*
Y13759D1*
X16482D1*
Y12970D1*
G37*
G36*
X16226D2*
X15988D1*
Y13759D1*
X16226D1*
Y12970D1*
G37*
D45*
X12586Y8182D3*
Y8682D3*
Y9182D3*
Y9682D3*
Y10182D3*
Y10682D3*
Y11182D3*
Y11682D3*
Y12182D3*
Y12682D3*
Y13182D3*
Y13682D3*
X8807D3*
Y13182D3*
Y12682D3*
Y12182D3*
Y11682D3*
Y11182D3*
Y10682D3*
Y10182D3*
Y9682D3*
Y9182D3*
Y8682D3*
Y8182D3*
X22301Y12794D3*
Y12294D3*
Y11794D3*
Y11294D3*
Y10794D3*
Y10294D3*
Y9794D3*
Y9294D3*
Y8794D3*
Y8294D3*
Y7794D3*
Y7294D3*
X26080D3*
Y7794D3*
Y8294D3*
Y8794D3*
Y9294D3*
Y9794D3*
Y10294D3*
Y10794D3*
Y11294D3*
Y11794D3*
Y12294D3*
Y12794D3*
M02*
