G04 DipTrace 2.4.0.2*
%INTopPaste.gbr*%
%MOIN*%
%ADD46R,0.0707X0.0156*%
%ADD48R,0.0353X0.0156*%
%ADD56R,0.0431X0.051*%
%ADD63R,0.0707X0.2006*%
%ADD69R,0.0865X0.1219*%
%ADD71R,0.152X0.048*%
%ADD73R,0.0313X0.0353*%
%ADD75R,0.0353X0.0313*%
%FSLAX44Y44*%
G04*
G70*
G90*
G75*
G01*
%LNTopPaste*%
%LPD*%
D75*
X12706Y15159D3*
X13375D3*
D73*
X15852Y15479D3*
Y14809D3*
D75*
X17601Y14715D3*
X18270D3*
X17599Y14210D3*
X18268D3*
X16069Y8908D3*
X15400D3*
X13372Y11713D3*
X14041D3*
X21485Y9291D3*
X20816D3*
D73*
X10454Y5702D3*
Y5033D3*
D75*
X27078Y13612D3*
X27747D3*
D71*
X23801Y15249D3*
X26401D3*
X14743Y6020D3*
X12143D3*
D73*
X13909Y9971D3*
Y10640D3*
X20817Y11050D3*
Y10381D3*
X15177Y12022D3*
Y11352D3*
X19668Y8976D3*
Y9645D3*
X6844Y12908D3*
Y12239D3*
D75*
X27609Y8266D3*
X28278D3*
X7441Y9079D3*
X6772D3*
X27675Y11802D3*
X28344D3*
D69*
X14785Y17280D3*
X17521D3*
D63*
X12528Y17264D3*
X9907Y17263D3*
D56*
X5475Y14649D3*
X4727D3*
X30561Y14386D3*
X29813D3*
X17775Y15658D3*
X17027D3*
D75*
X20543Y13392D3*
X21213D3*
X20170Y15076D3*
X20840D3*
X6654Y14645D3*
X7323D3*
X30529Y13284D3*
X29860D3*
D73*
X7512Y12906D3*
Y12237D3*
X27006Y8240D3*
Y8909D3*
D75*
X6842Y11653D3*
X7511D3*
X28265Y8928D3*
X27596D3*
D73*
X14635Y11350D3*
Y12019D3*
X20202Y9632D3*
Y8963D3*
X13372Y10629D3*
Y9960D3*
X21389Y10368D3*
Y11037D3*
X7982Y9760D3*
Y9090D3*
X27078Y11174D3*
Y11844D3*
D75*
X6754Y9756D3*
X7423D3*
X28342Y11160D3*
X27673D3*
X23757Y4599D3*
X24426D3*
D56*
X20553Y14374D3*
X19805D3*
D48*
X14042Y15540D3*
Y15166D3*
Y14792D3*
X15105D3*
Y15540D3*
G36*
X16146Y10215D2*
X16068D1*
Y10844D1*
X16146D1*
Y10215D1*
G37*
G36*
X16401D2*
X16324D1*
Y10844D1*
X16401D1*
Y10215D1*
G37*
G36*
X16657D2*
X16580D1*
Y10844D1*
X16657D1*
Y10215D1*
G37*
G36*
X16913D2*
X16836D1*
Y10844D1*
X16913D1*
Y10215D1*
G37*
G36*
X17169D2*
X17092D1*
Y10844D1*
X17169D1*
Y10215D1*
G37*
G36*
X17425D2*
X17348D1*
Y10844D1*
X17425D1*
Y10215D1*
G37*
G36*
X17681D2*
X17604D1*
Y10844D1*
X17681D1*
Y10215D1*
G37*
G36*
X17937D2*
X17860D1*
Y10844D1*
X17937D1*
Y10215D1*
G37*
G36*
X18193D2*
X18116D1*
Y10844D1*
X18193D1*
Y10215D1*
G37*
G36*
X18449D2*
X18372D1*
Y10844D1*
X18449D1*
Y10215D1*
G37*
G36*
X18705D2*
X18627D1*
Y10844D1*
X18705D1*
Y10215D1*
G37*
G36*
X18961D2*
X18883D1*
Y10844D1*
X18961D1*
Y10215D1*
G37*
G36*
X19216D2*
X19139D1*
Y10844D1*
X19216D1*
Y10215D1*
G37*
G36*
X19472D2*
X19395D1*
Y10844D1*
X19472D1*
Y10215D1*
G37*
G36*
Y13050D2*
X19395D1*
Y13679D1*
X19472D1*
Y13050D1*
G37*
G36*
X19216D2*
X19139D1*
Y13678D1*
X19216D1*
Y13050D1*
G37*
G36*
X18961D2*
X18883D1*
Y13678D1*
X18961D1*
Y13050D1*
G37*
G36*
X18705D2*
X18627D1*
Y13678D1*
X18705D1*
Y13050D1*
G37*
G36*
X18449D2*
X18372D1*
Y13678D1*
X18449D1*
Y13050D1*
G37*
G36*
X18193D2*
X18116D1*
Y13678D1*
X18193D1*
Y13050D1*
G37*
G36*
X17937D2*
X17860D1*
Y13678D1*
X17937D1*
Y13050D1*
G37*
G36*
X17681D2*
X17604D1*
Y13678D1*
X17681D1*
Y13050D1*
G37*
G36*
X17425D2*
X17348D1*
Y13678D1*
X17425D1*
Y13050D1*
G37*
G36*
X17169D2*
X17092D1*
Y13678D1*
X17169D1*
Y13050D1*
G37*
G36*
X16913D2*
X16836D1*
Y13678D1*
X16913D1*
Y13050D1*
G37*
G36*
X16657D2*
X16580D1*
Y13678D1*
X16657D1*
Y13050D1*
G37*
G36*
X16401D2*
X16324D1*
Y13678D1*
X16401D1*
Y13050D1*
G37*
G36*
X16146D2*
X16068D1*
Y13678D1*
X16146D1*
Y13050D1*
G37*
D46*
X12586Y8182D3*
Y8682D3*
Y9182D3*
Y9682D3*
Y10182D3*
Y10682D3*
Y11182D3*
Y11682D3*
Y12182D3*
Y12682D3*
Y13182D3*
Y13682D3*
X8807D3*
Y13182D3*
Y12682D3*
Y12182D3*
Y11682D3*
Y11182D3*
Y10682D3*
Y10182D3*
Y9682D3*
Y9182D3*
Y8682D3*
Y8182D3*
X22301Y12794D3*
Y12294D3*
Y11794D3*
Y11294D3*
Y10794D3*
Y10294D3*
Y9794D3*
Y9294D3*
Y8794D3*
Y8294D3*
Y7794D3*
Y7294D3*
X26080D3*
Y7794D3*
Y8294D3*
Y8794D3*
Y9294D3*
Y9794D3*
Y10294D3*
Y10794D3*
Y11294D3*
Y11794D3*
Y12294D3*
Y12794D3*
M02*
