G04 DipTrace 2.4.0.2*
%INTopSilk.gbr*%
%MOIN*%
%ADD10C,0.0098*%
%ADD12C,0.003*%
%ADD22C,0.0315*%
%ADD33C,0.0154*%
%ADD76C,0.0124*%
%FSLAX44Y44*%
G04*
G70*
G90*
G75*
G01*
%LNTopSilk*%
%LPD*%
X26302Y13599D2*
D10*
X23450D1*
X26751Y14048D2*
X26302Y13599D1*
Y16899D2*
X23450D1*
X26751Y16450D2*
X26302Y16899D1*
X26751Y14850D2*
Y14048D1*
Y16450D2*
Y15649D1*
X23450Y14850D2*
Y13599D1*
Y16899D2*
Y15649D1*
D22*
X27069Y14698D3*
X12241Y7670D2*
D10*
X15093D1*
X11792Y7221D2*
X12241Y7670D1*
Y4370D2*
X15093D1*
X11792Y4818D2*
X12241Y4370D1*
X11792Y6419D2*
Y7221D1*
Y4818D2*
Y5620D1*
X15093Y6419D2*
Y7670D1*
Y4370D2*
Y5620D1*
D22*
X11474Y6571D3*
X14794Y18422D2*
D10*
X17511D1*
X14794Y16138D2*
X17511D1*
X14794Y18422D2*
Y18107D1*
X17511Y18422D2*
Y18107D1*
X14794Y16414D2*
Y16138D1*
X17511Y16414D2*
Y16138D1*
D22*
X13948Y17280D3*
X19268Y7557D2*
D10*
X17536D1*
Y5825D1*
X19268D1*
Y7557D1*
X13286Y15937D2*
X9161D1*
Y18562D1*
X13286D1*
Y15937D1*
X7160Y7003D2*
X9483D1*
Y4010D1*
X7160D1*
Y7003D1*
X25815Y6975D2*
X28138D1*
Y3983D1*
X25815D1*
Y6975D1*
X6296Y13608D2*
X4032D1*
Y8729D1*
X6296D1*
Y13608D1*
X29134Y7480D2*
X31398D1*
Y12359D1*
X29134D1*
Y7480D1*
X5849Y14905D2*
Y14393D1*
X30935Y14641D2*
Y14130D1*
X22204Y4103D2*
X16205D1*
Y5103D1*
X22204D1*
Y4103D1*
X18148Y15914D2*
Y15402D1*
X22671Y15474D2*
X18773D1*
Y18468D1*
X22671D1*
Y15474D1*
X20927Y14629D2*
Y14118D1*
D33*
X13876Y15809D3*
X14417Y15757D2*
D10*
Y14576D1*
X14732Y15757D2*
Y14576D1*
X14417D2*
X14732D1*
X14417Y15757D2*
X14732D1*
X15723Y11002D2*
X19818D1*
X15723Y12892D2*
X19818D1*
Y11002D2*
Y12892D1*
X15723Y11002D2*
Y11671D1*
Y12223D2*
Y12892D1*
Y11671D2*
G03X15723Y12223I37J276D01*
G01*
X12074Y7861D2*
Y14003D1*
X9319D1*
Y7861D1*
X10460D1*
X12074D2*
X10933D1*
G03X10460Y7861I-236J0D01*
G01*
X22813Y13115D2*
Y6973D1*
X25568D1*
Y13115D1*
X24427D1*
X22813D2*
X23954D1*
G03X24427Y13115I236J0D01*
G01*
G36*
X21705Y5451D2*
X21904Y6049D1*
X21495D1*
X21705Y5451D1*
G37*
X13053Y15586D2*
D12*
X13043Y15605D1*
X13024Y15624D1*
X13005Y15634D1*
X12967D1*
X12948Y15624D1*
X12929Y15605D1*
X12919Y15586D1*
X12909Y15557D1*
Y15509D1*
X12919Y15481D1*
X12929Y15461D1*
X12948Y15442D1*
X12967Y15433D1*
X13005D1*
X13024Y15442D1*
X13043Y15461D1*
X13053Y15481D1*
X13115Y15595D2*
X13134Y15605D1*
X13163Y15633D1*
Y15433D1*
X11738Y14838D2*
X11758Y14848D1*
X11786Y14877D1*
Y14676D1*
X11848Y14810D2*
Y14714D1*
X11858Y14686D1*
X11877Y14676D1*
X11906D1*
X11925Y14686D1*
X11953Y14714D1*
Y14810D2*
Y14676D1*
X12140Y14877D2*
X12015D1*
Y14676D1*
Y14781D2*
X12092D1*
X12511Y14877D2*
X12415D1*
X12406Y14791D1*
X12415Y14800D1*
X12444Y14810D1*
X12472D1*
X12501Y14800D1*
X12520Y14781D1*
X12530Y14752D1*
Y14733D1*
X12520Y14705D1*
X12501Y14685D1*
X12472Y14676D1*
X12444D1*
X12415Y14685D1*
X12406Y14695D1*
X12396Y14714D1*
X12649Y14877D2*
X12620Y14867D1*
X12601Y14838D1*
X12592Y14791D1*
Y14762D1*
X12601Y14714D1*
X12620Y14685D1*
X12649Y14676D1*
X12668D1*
X12697Y14685D1*
X12716Y14714D1*
X12726Y14762D1*
Y14791D1*
X12716Y14838D1*
X12697Y14867D1*
X12668Y14877D1*
X12649D1*
X12716Y14838D2*
X12601Y14714D1*
X12787Y14810D2*
X12845Y14676D1*
X12902Y14810D1*
X13302Y14829D2*
X13292Y14848D1*
X13273Y14867D1*
X13254Y14877D1*
X13216D1*
X13196Y14867D1*
X13177Y14848D1*
X13168Y14829D1*
X13158Y14800D1*
Y14752D1*
X13168Y14724D1*
X13177Y14705D1*
X13196Y14686D1*
X13216Y14676D1*
X13254D1*
X13273Y14686D1*
X13292Y14705D1*
X13302Y14724D1*
X13363Y14752D2*
X13478D1*
Y14772D1*
X13469Y14791D1*
X13459Y14800D1*
X13440Y14810D1*
X13411D1*
X13392Y14800D1*
X13373Y14781D1*
X13363Y14752D1*
Y14733D1*
X13373Y14705D1*
X13392Y14686D1*
X13411Y14676D1*
X13440D1*
X13459Y14686D1*
X13478Y14705D1*
X13540Y14810D2*
Y14676D1*
Y14752D2*
X13550Y14781D1*
X13569Y14800D1*
X13588Y14810D1*
X13617D1*
X15452Y15114D2*
X15433Y15104D1*
X15413Y15085D1*
X15404Y15066D1*
Y15028D1*
X15413Y15009D1*
X15433Y14990D1*
X15452Y14980D1*
X15480Y14970D1*
X15528D1*
X15557Y14980D1*
X15576Y14990D1*
X15595Y15009D1*
X15605Y15028D1*
Y15066D1*
X15595Y15085D1*
X15576Y15104D1*
X15557Y15114D1*
X15452Y15185D2*
X15442D1*
X15423Y15195D1*
X15414Y15204D1*
X15404Y15224D1*
Y15262D1*
X15414Y15281D1*
X15423Y15290D1*
X15442Y15300D1*
X15461D1*
X15481Y15290D1*
X15509Y15271D1*
X15605Y15176D1*
Y15310D1*
X16183Y14917D2*
X16173Y14937D1*
X16144Y14965D1*
X16345D1*
X16211Y15027D2*
X16307D1*
X16335Y15037D1*
X16345Y15056D1*
Y15085D1*
X16335Y15104D1*
X16307Y15132D1*
X16211D2*
X16345D1*
X16144Y15319D2*
Y15194D1*
X16345D1*
X16240D2*
Y15271D1*
X17130Y14799D2*
X17121Y14818D1*
X17101Y14838D1*
X17082Y14847D1*
X17044D1*
X17025Y14838D1*
X17006Y14818D1*
X16996Y14799D1*
X16987Y14771D1*
Y14723D1*
X16996Y14694D1*
X17006Y14675D1*
X17025Y14656D1*
X17044Y14646D1*
X17082D1*
X17101Y14656D1*
X17121Y14675D1*
X17130Y14694D1*
X17211Y14847D2*
X17316D1*
X17259Y14770D1*
X17288D1*
X17307Y14761D1*
X17316Y14751D1*
X17326Y14723D1*
Y14704D1*
X17316Y14675D1*
X17297Y14656D1*
X17268Y14646D1*
X17240D1*
X17211Y14656D1*
X17202Y14665D1*
X17192Y14684D1*
X18610Y15020D2*
X18581Y15010D1*
X18562Y14982D1*
X18552Y14934D1*
Y14905D1*
X18562Y14857D1*
X18581Y14829D1*
X18610Y14819D1*
X18629D1*
X18657Y14829D1*
X18676Y14857D1*
X18686Y14905D1*
Y14934D1*
X18676Y14982D1*
X18657Y15010D1*
X18629Y15020D1*
X18610D1*
X18676Y14982D2*
X18562Y14857D1*
X18757Y14838D2*
X18748Y14829D1*
X18757Y14819D1*
X18767Y14829D1*
X18757Y14838D1*
X18829Y14982D2*
X18848Y14991D1*
X18877Y15020D1*
Y14819D1*
X18939Y14953D2*
Y14857D1*
X18948Y14829D1*
X18967Y14819D1*
X18996D1*
X19015Y14829D1*
X19044Y14857D1*
Y14953D2*
Y14819D1*
X19230Y15020D2*
X19106D1*
Y14819D1*
Y14924D2*
X19182D1*
X17123Y14256D2*
X17113Y14275D1*
X17094Y14294D1*
X17075Y14304D1*
X17037D1*
X17017Y14294D1*
X16998Y14275D1*
X16989Y14256D1*
X16979Y14227D1*
Y14179D1*
X16989Y14151D1*
X16998Y14132D1*
X17017Y14113D1*
X17037Y14103D1*
X17075D1*
X17094Y14113D1*
X17113Y14132D1*
X17123Y14151D1*
X17280Y14103D2*
Y14304D1*
X17184Y14170D1*
X17328D1*
X18535Y14270D2*
X18554Y14279D1*
X18583Y14308D1*
Y14107D1*
X18702Y14308D2*
X18673Y14298D1*
X18654Y14270D1*
X18645Y14222D1*
Y14193D1*
X18654Y14145D1*
X18673Y14117D1*
X18702Y14107D1*
X18721D1*
X18750Y14117D1*
X18769Y14145D1*
X18779Y14193D1*
Y14222D1*
X18769Y14270D1*
X18750Y14298D1*
X18721Y14308D1*
X18702D1*
X18769Y14270D2*
X18654Y14145D1*
X18840Y14241D2*
Y14145D1*
X18850Y14117D1*
X18869Y14107D1*
X18898D1*
X18917Y14117D1*
X18946Y14145D1*
Y14241D2*
Y14107D1*
X19132Y14308D2*
X19007D1*
Y14107D1*
Y14212D2*
X19084D1*
X15732Y9316D2*
X15723Y9335D1*
X15704Y9354D1*
X15684Y9364D1*
X15646D1*
X15627Y9354D1*
X15608Y9335D1*
X15598Y9316D1*
X15589Y9287D1*
Y9239D1*
X15598Y9211D1*
X15608Y9192D1*
X15627Y9173D1*
X15646Y9163D1*
X15684D1*
X15704Y9173D1*
X15723Y9192D1*
X15732Y9211D1*
X15832Y9163D2*
X15928Y9364D1*
X15794D1*
X15436Y8605D2*
X15455Y8615D1*
X15484Y8643D1*
Y8442D1*
X15603Y8643D2*
X15574Y8634D1*
X15555Y8605D1*
X15546Y8557D1*
Y8528D1*
X15555Y8481D1*
X15574Y8452D1*
X15603Y8442D1*
X15622D1*
X15651Y8452D1*
X15670Y8481D1*
X15680Y8528D1*
Y8557D1*
X15670Y8605D1*
X15651Y8634D1*
X15622Y8643D1*
X15603D1*
X15670Y8605D2*
X15555Y8481D1*
X15741Y8576D2*
Y8481D1*
X15751Y8452D1*
X15770Y8442D1*
X15799D1*
X15818Y8452D1*
X15847Y8481D1*
Y8576D2*
Y8442D1*
X16033Y8643D2*
X15908D1*
Y8442D1*
Y8548D2*
X15985D1*
X13461Y12129D2*
X13452Y12148D1*
X13432Y12167D1*
X13413Y12176D1*
X13375D1*
X13356Y12167D1*
X13337Y12148D1*
X13327Y12129D1*
X13318Y12100D1*
Y12052D1*
X13327Y12023D1*
X13337Y12004D1*
X13356Y11985D1*
X13375Y11975D1*
X13413D1*
X13432Y11985D1*
X13452Y12004D1*
X13461Y12023D1*
X13523Y12138D2*
X13542Y12148D1*
X13571Y12176D1*
Y11975D1*
X13690Y12176D2*
X13661Y12167D1*
X13642Y12138D1*
X13633Y12090D1*
Y12061D1*
X13642Y12014D1*
X13661Y11985D1*
X13690Y11975D1*
X13709D1*
X13738Y11985D1*
X13757Y12014D1*
X13767Y12061D1*
Y12090D1*
X13757Y12138D1*
X13738Y12167D1*
X13709Y12176D1*
X13690D1*
X13757Y12138D2*
X13642Y12014D1*
X13828Y11942D2*
X14010D1*
X14072Y12138D2*
X14091Y12148D1*
X14120Y12176D1*
Y11975D1*
X13310Y11409D2*
X13330Y11419D1*
X13358Y11448D1*
Y11247D1*
X13478Y11448D2*
X13449Y11438D1*
X13430Y11409D1*
X13420Y11362D1*
Y11333D1*
X13430Y11285D1*
X13449Y11256D1*
X13478Y11247D1*
X13497D1*
X13525Y11256D1*
X13544Y11285D1*
X13554Y11333D1*
Y11362D1*
X13544Y11409D1*
X13525Y11438D1*
X13497Y11448D1*
X13478D1*
X13544Y11409D2*
X13430Y11285D1*
X13673Y11448D2*
X13645Y11438D1*
X13625Y11409D1*
X13616Y11362D1*
Y11333D1*
X13625Y11285D1*
X13645Y11256D1*
X13673Y11247D1*
X13692D1*
X13721Y11256D1*
X13740Y11285D1*
X13750Y11333D1*
Y11362D1*
X13740Y11409D1*
X13721Y11438D1*
X13692Y11448D1*
X13673D1*
X13740Y11409D2*
X13625Y11285D1*
X13812Y11381D2*
Y11247D1*
Y11343D2*
X13840Y11371D1*
X13860Y11381D1*
X13888D1*
X13907Y11371D1*
X13917Y11343D1*
Y11247D1*
X14103Y11448D2*
X13979D1*
Y11247D1*
Y11352D2*
X14055D1*
X20842Y9751D2*
X20832Y9770D1*
X20813Y9789D1*
X20794Y9799D1*
X20756D1*
X20736Y9789D1*
X20717Y9770D1*
X20708Y9751D1*
X20698Y9722D1*
Y9674D1*
X20708Y9646D1*
X20717Y9626D1*
X20736Y9607D1*
X20756Y9598D1*
X20794D1*
X20813Y9607D1*
X20832Y9626D1*
X20842Y9646D1*
X20903Y9760D2*
X20923Y9770D1*
X20951Y9798D1*
Y9598D1*
X21071Y9798D2*
X21042Y9789D1*
X21023Y9760D1*
X21013Y9712D1*
Y9684D1*
X21023Y9636D1*
X21042Y9607D1*
X21071Y9598D1*
X21090D1*
X21118Y9607D1*
X21137Y9636D1*
X21147Y9684D1*
Y9712D1*
X21137Y9760D1*
X21118Y9789D1*
X21090Y9798D1*
X21071D1*
X21137Y9760D2*
X21023Y9636D1*
X21209Y9564D2*
X21391D1*
X21462Y9751D2*
Y9760D1*
X21472Y9779D1*
X21481Y9789D1*
X21500Y9798D1*
X21539D1*
X21558Y9789D1*
X21567Y9779D1*
X21577Y9760D1*
Y9741D1*
X21567Y9722D1*
X21548Y9693D1*
X21452Y9598D1*
X21586D1*
X20754Y8988D2*
X20773Y8997D1*
X20802Y9026D1*
Y8825D1*
X20921Y9026D2*
X20892Y9017D1*
X20873Y8988D1*
X20864Y8940D1*
Y8911D1*
X20873Y8864D1*
X20892Y8835D1*
X20921Y8825D1*
X20940D1*
X20969Y8835D1*
X20988Y8864D1*
X20998Y8911D1*
Y8940D1*
X20988Y8988D1*
X20969Y9017D1*
X20940Y9026D1*
X20921D1*
X20988Y8988D2*
X20873Y8864D1*
X21117Y9026D2*
X21088Y9017D1*
X21069Y8988D1*
X21059Y8940D1*
Y8911D1*
X21069Y8864D1*
X21088Y8835D1*
X21117Y8825D1*
X21136D1*
X21165Y8835D1*
X21184Y8864D1*
X21193Y8911D1*
Y8940D1*
X21184Y8988D1*
X21165Y9017D1*
X21136Y9026D1*
X21117D1*
X21184Y8988D2*
X21069Y8864D1*
X21255Y8959D2*
Y8825D1*
Y8921D2*
X21284Y8950D1*
X21303Y8959D1*
X21332D1*
X21351Y8950D1*
X21360Y8921D1*
Y8825D1*
X21547Y9026D2*
X21422D1*
Y8825D1*
Y8931D2*
X21499D1*
X9986Y5109D2*
X9967Y5100D1*
X9948Y5080D1*
X9938Y5061D1*
Y5023D1*
X9948Y5004D1*
X9967Y4985D1*
X9986Y4975D1*
X10015Y4966D1*
X10063D1*
X10091Y4975D1*
X10110Y4985D1*
X10129Y5004D1*
X10139Y5023D1*
Y5061D1*
X10129Y5080D1*
X10110Y5100D1*
X10091Y5109D1*
X9977Y5171D2*
X9967Y5190D1*
X9938Y5219D1*
X10139D1*
X9977Y5281D2*
X9967Y5300D1*
X9938Y5329D1*
X10139D1*
X10172Y5390D2*
Y5572D1*
X9977Y5634D2*
X9967Y5653D1*
X9938Y5682D1*
X10139D1*
X10757Y4571D2*
X10747Y4590D1*
X10719Y4619D1*
X10920D1*
X10719Y4738D2*
X10728Y4710D1*
X10757Y4690D1*
X10805Y4681D1*
X10834D1*
X10881Y4690D1*
X10910Y4710D1*
X10920Y4738D1*
Y4757D1*
X10910Y4786D1*
X10881Y4805D1*
X10834Y4815D1*
X10805D1*
X10757Y4805D1*
X10728Y4786D1*
X10719Y4757D1*
Y4738D1*
X10757Y4805D2*
X10881Y4690D1*
X10719Y4934D2*
X10728Y4905D1*
X10757Y4886D1*
X10805Y4877D1*
X10834D1*
X10881Y4886D1*
X10910Y4905D1*
X10920Y4934D1*
Y4953D1*
X10910Y4982D1*
X10881Y5001D1*
X10834Y5011D1*
X10805D1*
X10757Y5001D1*
X10728Y4982D1*
X10719Y4953D1*
Y4934D1*
X10757Y5001D2*
X10881Y4886D1*
X10786Y5072D2*
X10920D1*
X10824D2*
X10795Y5101D1*
X10786Y5120D1*
Y5149D1*
X10795Y5168D1*
X10824Y5178D1*
X10920D1*
X10719Y5364D2*
Y5239D1*
X10920D1*
X10814D2*
Y5316D1*
X10719Y5735D2*
Y5639D1*
X10805Y5630D1*
X10795Y5639D1*
X10786Y5668D1*
Y5696D1*
X10795Y5725D1*
X10814Y5744D1*
X10843Y5754D1*
X10862D1*
X10891Y5744D1*
X10910Y5725D1*
X10920Y5696D1*
Y5668D1*
X10910Y5639D1*
X10900Y5630D1*
X10881Y5620D1*
X10719Y5873D2*
X10728Y5844D1*
X10757Y5825D1*
X10805Y5816D1*
X10834D1*
X10881Y5825D1*
X10910Y5844D1*
X10920Y5873D1*
Y5892D1*
X10910Y5921D1*
X10881Y5940D1*
X10834Y5950D1*
X10805D1*
X10757Y5940D1*
X10728Y5921D1*
X10719Y5892D1*
Y5873D1*
X10757Y5940D2*
X10881Y5825D1*
X10719Y6011D2*
X10920Y6088D1*
X10719Y6164D1*
X27177Y14073D2*
X27168Y14092D1*
X27148Y14112D1*
X27129Y14121D1*
X27091D1*
X27072Y14112D1*
X27053Y14092D1*
X27043Y14073D1*
X27034Y14045D1*
Y13997D1*
X27043Y13968D1*
X27053Y13949D1*
X27072Y13930D1*
X27091Y13920D1*
X27129D1*
X27148Y13930D1*
X27168Y13949D1*
X27177Y13968D1*
X27239Y14083D2*
X27258Y14092D1*
X27287Y14121D1*
Y13920D1*
X27349Y14083D2*
X27368Y14092D1*
X27397Y14121D1*
Y13920D1*
X27458Y13887D2*
X27640D1*
X27712Y14073D2*
Y14083D1*
X27721Y14102D1*
X27731Y14112D1*
X27750Y14121D1*
X27788D1*
X27807Y14112D1*
X27817Y14102D1*
X27826Y14083D1*
Y14064D1*
X27817Y14045D1*
X27798Y14016D1*
X27702Y13920D1*
X27836D1*
X26616Y13308D2*
X26635Y13318D1*
X26664Y13347D1*
Y13146D1*
X26783Y13347D2*
X26755Y13337D1*
X26735Y13308D1*
X26726Y13261D1*
Y13232D1*
X26735Y13184D1*
X26755Y13155D1*
X26783Y13146D1*
X26802D1*
X26831Y13155D1*
X26850Y13184D1*
X26860Y13232D1*
Y13261D1*
X26850Y13308D1*
X26831Y13337D1*
X26802Y13347D1*
X26783D1*
X26850Y13308D2*
X26735Y13184D1*
X26979Y13347D2*
X26950Y13337D1*
X26931Y13308D1*
X26922Y13261D1*
Y13232D1*
X26931Y13184D1*
X26950Y13155D1*
X26979Y13146D1*
X26998D1*
X27027Y13155D1*
X27046Y13184D1*
X27056Y13232D1*
Y13261D1*
X27046Y13308D1*
X27027Y13337D1*
X26998Y13347D1*
X26979D1*
X27046Y13308D2*
X26931Y13184D1*
X27117Y13280D2*
Y13146D1*
Y13242D2*
X27146Y13270D1*
X27165Y13280D1*
X27194D1*
X27213Y13270D1*
X27223Y13242D1*
Y13146D1*
X27409Y13347D2*
X27284D1*
Y13146D1*
Y13251D2*
X27361D1*
X27780Y13347D2*
X27684D1*
X27675Y13261D1*
X27684Y13270D1*
X27713Y13280D1*
X27741D1*
X27770Y13270D1*
X27789Y13251D1*
X27799Y13222D1*
Y13203D1*
X27789Y13175D1*
X27770Y13155D1*
X27741Y13146D1*
X27713D1*
X27684Y13155D1*
X27675Y13165D1*
X27665Y13184D1*
X27918Y13347D2*
X27889Y13337D1*
X27870Y13308D1*
X27861Y13261D1*
Y13232D1*
X27870Y13184D1*
X27889Y13155D1*
X27918Y13146D1*
X27937D1*
X27966Y13155D1*
X27985Y13184D1*
X27995Y13232D1*
Y13261D1*
X27985Y13308D1*
X27966Y13337D1*
X27937Y13347D1*
X27918D1*
X27985Y13308D2*
X27870Y13184D1*
X28056Y13347D2*
X28133Y13146D1*
X28209Y13347D1*
X23558Y13456D2*
X23548Y13475D1*
X23529Y13494D1*
X23510Y13504D1*
X23472D1*
X23452Y13494D1*
X23433Y13475D1*
X23424Y13456D1*
X23414Y13427D1*
Y13379D1*
X23424Y13351D1*
X23433Y13332D1*
X23452Y13313D1*
X23472Y13303D1*
X23510D1*
X23529Y13313D1*
X23548Y13332D1*
X23558Y13351D1*
X23619Y13465D2*
X23639Y13475D1*
X23667Y13504D1*
Y13303D1*
X23739Y13456D2*
Y13465D1*
X23748Y13485D1*
X23758Y13494D1*
X23777Y13504D1*
X23815D1*
X23834Y13494D1*
X23844Y13485D1*
X23854Y13465D1*
Y13446D1*
X23844Y13427D1*
X23825Y13399D1*
X23729Y13303D1*
X23863D1*
X23925Y13270D2*
X24106D1*
X24168Y13465D2*
X24187Y13475D1*
X24216Y13504D1*
Y13303D1*
X24758Y13437D2*
X24777Y13447D1*
X24806Y13475D1*
Y13275D1*
X24925Y13475D2*
X24896Y13466D1*
X24877Y13437D1*
X24868Y13389D1*
Y13361D1*
X24877Y13313D1*
X24896Y13284D1*
X24925Y13275D1*
X24944D1*
X24973Y13284D1*
X24992Y13313D1*
X25002Y13361D1*
Y13389D1*
X24992Y13437D1*
X24973Y13466D1*
X24944Y13475D1*
X24925D1*
X24992Y13437D2*
X24877Y13313D1*
X25121Y13475D2*
X25092Y13466D1*
X25073Y13437D1*
X25063Y13389D1*
Y13361D1*
X25073Y13313D1*
X25092Y13284D1*
X25121Y13275D1*
X25140D1*
X25169Y13284D1*
X25188Y13313D1*
X25197Y13361D1*
Y13389D1*
X25188Y13437D1*
X25169Y13466D1*
X25140Y13475D1*
X25121D1*
X25188Y13437D2*
X25073Y13313D1*
X25259Y13409D2*
Y13313D1*
X25269Y13284D1*
X25288Y13275D1*
X25317D1*
X25336Y13284D1*
X25364Y13313D1*
Y13409D2*
Y13275D1*
X25551Y13476D2*
X25426D1*
Y13275D1*
Y13380D2*
X25503D1*
X25921Y13475D2*
X25826D1*
X25816Y13389D1*
X25826Y13399D1*
X25855Y13409D1*
X25883D1*
X25912Y13399D1*
X25931Y13380D1*
X25941Y13351D1*
Y13332D1*
X25931Y13303D1*
X25912Y13284D1*
X25883Y13275D1*
X25855D1*
X25826Y13284D1*
X25816Y13294D1*
X25807Y13313D1*
X26060Y13475D2*
X26031Y13466D1*
X26012Y13437D1*
X26002Y13389D1*
Y13361D1*
X26012Y13313D1*
X26031Y13284D1*
X26060Y13275D1*
X26079D1*
X26108Y13284D1*
X26127Y13313D1*
X26136Y13361D1*
Y13389D1*
X26127Y13437D1*
X26108Y13466D1*
X26079Y13475D1*
X26060D1*
X26127Y13437D2*
X26012Y13313D1*
X26198Y13476D2*
X26275Y13275D1*
X26351Y13476D1*
X12373Y4178D2*
X12363Y4198D1*
X12344Y4217D1*
X12325Y4226D1*
X12287D1*
X12268Y4217D1*
X12249Y4198D1*
X12239Y4178D1*
X12229Y4150D1*
Y4102D1*
X12239Y4073D1*
X12249Y4054D1*
X12268Y4035D1*
X12287Y4025D1*
X12325D1*
X12344Y4035D1*
X12363Y4054D1*
X12373Y4073D1*
X12435Y4188D2*
X12454Y4198D1*
X12483Y4226D1*
Y4025D1*
X12554Y4178D2*
Y4188D1*
X12564Y4207D1*
X12573Y4217D1*
X12592Y4226D1*
X12631D1*
X12650Y4217D1*
X12659Y4207D1*
X12669Y4188D1*
Y4169D1*
X12659Y4150D1*
X12640Y4121D1*
X12544Y4025D1*
X12678D1*
X12740Y3992D2*
X12922D1*
X12993Y4178D2*
Y4188D1*
X13003Y4207D1*
X13012Y4217D1*
X13032Y4226D1*
X13070D1*
X13089Y4217D1*
X13098Y4207D1*
X13108Y4188D1*
Y4169D1*
X13098Y4150D1*
X13079Y4121D1*
X12984Y4025D1*
X13118D1*
X13457Y4193D2*
X13476Y4203D1*
X13505Y4232D1*
Y4031D1*
X13624Y4232D2*
X13595Y4222D1*
X13576Y4193D1*
X13567Y4146D1*
Y4117D1*
X13576Y4069D1*
X13595Y4040D1*
X13624Y4031D1*
X13643D1*
X13672Y4040D1*
X13691Y4069D1*
X13700Y4117D1*
Y4146D1*
X13691Y4193D1*
X13672Y4222D1*
X13643Y4232D1*
X13624D1*
X13691Y4193D2*
X13576Y4069D1*
X13820Y4232D2*
X13791Y4222D1*
X13772Y4193D1*
X13762Y4146D1*
Y4117D1*
X13772Y4069D1*
X13791Y4040D1*
X13820Y4031D1*
X13839D1*
X13867Y4040D1*
X13886Y4069D1*
X13896Y4117D1*
Y4146D1*
X13886Y4193D1*
X13867Y4222D1*
X13839Y4232D1*
X13820D1*
X13886Y4193D2*
X13772Y4069D1*
X13958Y4165D2*
Y4069D1*
X13967Y4041D1*
X13987Y4031D1*
X14015D1*
X14034Y4041D1*
X14063Y4069D1*
Y4165D2*
Y4031D1*
X14249Y4232D2*
X14125D1*
Y4031D1*
Y4136D2*
X14201D1*
X14620Y4232D2*
X14525D1*
X14515Y4146D1*
X14525Y4155D1*
X14554Y4165D1*
X14582D1*
X14611Y4155D1*
X14630Y4136D1*
X14640Y4107D1*
Y4088D1*
X14630Y4060D1*
X14611Y4040D1*
X14582Y4031D1*
X14554D1*
X14525Y4040D1*
X14515Y4050D1*
X14506Y4069D1*
X14759Y4232D2*
X14730Y4222D1*
X14711Y4193D1*
X14701Y4146D1*
Y4117D1*
X14711Y4069D1*
X14730Y4040D1*
X14759Y4031D1*
X14778D1*
X14807Y4040D1*
X14826Y4069D1*
X14835Y4117D1*
Y4146D1*
X14826Y4193D1*
X14807Y4222D1*
X14778Y4232D1*
X14759D1*
X14826Y4193D2*
X14711Y4069D1*
X14897Y4232D2*
X14974Y4031D1*
X15050Y4232D1*
X13842Y8981D2*
X13823Y8971D1*
X13804Y8952D1*
X13794Y8933D1*
Y8895D1*
X13804Y8876D1*
X13823Y8857D1*
X13842Y8847D1*
X13871Y8838D1*
X13919D1*
X13947Y8847D1*
X13966Y8857D1*
X13985Y8876D1*
X13995Y8895D1*
Y8933D1*
X13985Y8952D1*
X13966Y8971D1*
X13947Y8981D1*
X13833Y9043D2*
X13823Y9062D1*
X13794Y9091D1*
X13995D1*
X13794Y9172D2*
Y9277D1*
X13871Y9219D1*
Y9248D1*
X13880Y9267D1*
X13890Y9277D1*
X13919Y9286D1*
X13938D1*
X13966Y9277D1*
X13985Y9258D1*
X13995Y9229D1*
Y9200D1*
X13985Y9172D1*
X13976Y9162D1*
X13957Y9152D1*
X14028Y9348D2*
Y9530D1*
X13833Y9592D2*
X13823Y9611D1*
X13794Y9640D1*
X13995D1*
X14174Y9909D2*
X14183Y9881D1*
X14202Y9871D1*
X14221D1*
X14240Y9881D1*
X14250Y9900D1*
X14260Y9938D1*
X14269Y9967D1*
X14288Y9986D1*
X14307Y9995D1*
X14336D1*
X14355Y9986D1*
X14365Y9976D1*
X14374Y9948D1*
Y9909D1*
X14365Y9881D1*
X14355Y9871D1*
X14336Y9862D1*
X14307D1*
X14288Y9871D1*
X14269Y9890D1*
X14260Y9919D1*
X14250Y9957D1*
X14240Y9976D1*
X14221Y9986D1*
X14202D1*
X14183Y9976D1*
X14174Y9948D1*
Y9909D1*
X14221Y10067D2*
X14212D1*
X14193Y10076D1*
X14183Y10086D1*
X14174Y10105D1*
Y10143D1*
X14183Y10162D1*
X14193Y10172D1*
X14212Y10182D1*
X14231D1*
X14250Y10172D1*
X14279Y10153D1*
X14374Y10057D1*
Y10191D1*
X14174Y10310D2*
X14183Y10282D1*
X14212Y10262D1*
X14260Y10253D1*
X14288D1*
X14336Y10262D1*
X14365Y10282D1*
X14374Y10310D1*
Y10329D1*
X14365Y10358D1*
X14336Y10377D1*
X14288Y10387D1*
X14260D1*
X14212Y10377D1*
X14183Y10358D1*
X14174Y10329D1*
Y10310D1*
X14212Y10377D2*
X14336Y10262D1*
X14240Y10449D2*
X14441D1*
X14269D2*
X14250Y10468D1*
X14240Y10487D1*
Y10516D1*
X14250Y10535D1*
X14269Y10554D1*
X14298Y10564D1*
X14317D1*
X14346Y10554D1*
X14365Y10535D1*
X14374Y10516D1*
Y10487D1*
X14365Y10468D1*
X14346Y10449D1*
X14173Y10750D2*
Y10625D1*
X14374D1*
X14269D2*
Y10702D1*
X20377Y10445D2*
X20358Y10435D1*
X20338Y10416D1*
X20329Y10397D1*
Y10359D1*
X20338Y10340D1*
X20358Y10321D1*
X20377Y10311D1*
X20405Y10301D1*
X20453D1*
X20482Y10311D1*
X20501Y10321D1*
X20520Y10340D1*
X20530Y10359D1*
Y10397D1*
X20520Y10416D1*
X20501Y10435D1*
X20482Y10445D1*
X20367Y10507D2*
X20358Y10526D1*
X20329Y10555D1*
X20530D1*
X20329Y10636D2*
Y10741D1*
X20406Y10683D1*
Y10712D1*
X20415Y10731D1*
X20425Y10741D1*
X20453Y10750D1*
X20472D1*
X20501Y10741D1*
X20520Y10722D1*
X20530Y10693D1*
Y10664D1*
X20520Y10636D1*
X20511Y10626D1*
X20492Y10616D1*
X20563Y10812D2*
Y10994D1*
X20377Y11065D2*
X20367D1*
X20348Y11075D1*
X20339Y11084D1*
X20329Y11104D1*
Y11142D1*
X20339Y11161D1*
X20348Y11170D1*
X20367Y11180D1*
X20386D1*
X20406Y11170D1*
X20434Y11151D1*
X20530Y11056D1*
Y11190D1*
X20740Y11440D2*
X20750Y11412D1*
X20769Y11402D1*
X20788D1*
X20807Y11412D1*
X20817Y11431D1*
X20826Y11469D1*
X20836Y11498D1*
X20855Y11517D1*
X20874Y11526D1*
X20903D1*
X20922Y11517D1*
X20932Y11507D1*
X20941Y11479D1*
Y11440D1*
X20932Y11412D1*
X20922Y11402D1*
X20903Y11393D1*
X20874D1*
X20855Y11402D1*
X20836Y11421D1*
X20826Y11450D1*
X20817Y11488D1*
X20807Y11507D1*
X20788Y11517D1*
X20769D1*
X20750Y11507D1*
X20740Y11479D1*
Y11440D1*
X20788Y11598D2*
X20779D1*
X20759Y11607D1*
X20750Y11617D1*
X20740Y11636D1*
Y11674D1*
X20750Y11693D1*
X20759Y11703D1*
X20779Y11713D1*
X20798D1*
X20817Y11703D1*
X20845Y11684D1*
X20941Y11588D1*
Y11722D1*
X20740Y11841D2*
X20750Y11813D1*
X20779Y11793D1*
X20826Y11784D1*
X20855D1*
X20903Y11793D1*
X20932Y11813D1*
X20941Y11841D1*
Y11860D1*
X20932Y11889D1*
X20903Y11908D1*
X20855Y11918D1*
X20826D1*
X20779Y11908D1*
X20750Y11889D1*
X20740Y11860D1*
Y11841D1*
X20779Y11908D2*
X20903Y11793D1*
X20807Y11980D2*
X21008D1*
X20836D2*
X20817Y11999D1*
X20807Y12018D1*
Y12047D1*
X20817Y12066D1*
X20836Y12085D1*
X20865Y12095D1*
X20884D1*
X20912Y12085D1*
X20932Y12066D1*
X20941Y12047D1*
Y12018D1*
X20932Y11999D1*
X20912Y11980D1*
X20740Y12281D2*
Y12156D1*
X20941D1*
X20836D2*
Y12233D1*
X15098Y10322D2*
X15079Y10312D1*
X15060Y10293D1*
X15051Y10274D1*
Y10236D1*
X15060Y10216D1*
X15079Y10197D1*
X15098Y10188D1*
X15127Y10178D1*
X15175D1*
X15204Y10188D1*
X15223Y10197D1*
X15242Y10216D1*
X15252Y10236D1*
Y10274D1*
X15242Y10293D1*
X15223Y10312D1*
X15204Y10322D1*
X15089Y10383D2*
X15079Y10403D1*
X15051Y10431D1*
X15252D1*
Y10589D2*
X15051D1*
X15185Y10493D1*
Y10637D1*
X15285Y10698D2*
Y10880D1*
X15089Y10942D2*
X15079Y10961D1*
X15051Y10990D1*
X15252D1*
X15093Y12402D2*
X15103Y12373D1*
X15122Y12364D1*
X15141D1*
X15160Y12373D1*
X15170Y12392D1*
X15179Y12431D1*
X15189Y12459D1*
X15208Y12478D1*
X15227Y12488D1*
X15256D1*
X15275Y12478D1*
X15284Y12469D1*
X15294Y12440D1*
Y12402D1*
X15284Y12373D1*
X15275Y12364D1*
X15256Y12354D1*
X15227D1*
X15208Y12364D1*
X15189Y12383D1*
X15179Y12411D1*
X15170Y12450D1*
X15160Y12469D1*
X15141Y12478D1*
X15122D1*
X15103Y12469D1*
X15093Y12440D1*
Y12402D1*
X15141Y12559D2*
X15131D1*
X15112Y12569D1*
X15103Y12578D1*
X15093Y12598D1*
Y12636D1*
X15103Y12655D1*
X15112Y12664D1*
X15131Y12674D1*
X15151D1*
X15170Y12664D1*
X15198Y12645D1*
X15294Y12550D1*
Y12684D1*
X15093Y12803D2*
X15103Y12774D1*
X15131Y12755D1*
X15179Y12745D1*
X15208D1*
X15256Y12755D1*
X15284Y12774D1*
X15294Y12803D1*
Y12822D1*
X15284Y12851D1*
X15256Y12870D1*
X15208Y12879D1*
X15179D1*
X15131Y12870D1*
X15103Y12851D1*
X15093Y12822D1*
Y12803D1*
X15131Y12870D2*
X15256Y12755D1*
X15160Y12941D2*
X15361D1*
X15189D2*
X15170Y12960D1*
X15160Y12979D1*
Y13008D1*
X15170Y13027D1*
X15189Y13046D1*
X15217Y13056D1*
X15237D1*
X15265Y13046D1*
X15284Y13027D1*
X15294Y13008D1*
Y12979D1*
X15284Y12960D1*
X15265Y12941D1*
X15093Y13242D2*
Y13118D1*
X15294D1*
X15189D2*
Y13194D1*
X19615Y7884D2*
X19596Y7874D1*
X19576Y7855D1*
X19567Y7836D1*
Y7798D1*
X19576Y7779D1*
X19596Y7760D1*
X19615Y7750D1*
X19643Y7741D1*
X19691D1*
X19720Y7750D1*
X19739Y7760D1*
X19758Y7779D1*
X19768Y7798D1*
Y7836D1*
X19758Y7855D1*
X19739Y7874D1*
X19720Y7884D1*
X19605Y7946D2*
X19596Y7965D1*
X19567Y7994D1*
X19768D1*
Y8151D2*
X19567D1*
X19701Y8055D1*
Y8199D1*
X19801Y8261D2*
Y8442D1*
X19615Y8514D2*
X19605D1*
X19586Y8523D1*
X19577Y8533D1*
X19567Y8552D1*
Y8590D1*
X19577Y8609D1*
X19586Y8619D1*
X19605Y8629D1*
X19624D1*
X19644Y8619D1*
X19672Y8600D1*
X19768Y8504D1*
Y8638D1*
X19135Y8996D2*
X19144Y8967D1*
X19163Y8958D1*
X19182D1*
X19201Y8967D1*
X19211Y8986D1*
X19221Y9025D1*
X19230Y9053D1*
X19249Y9072D1*
X19268Y9082D1*
X19297D1*
X19316Y9072D1*
X19326Y9063D1*
X19335Y9034D1*
Y8996D1*
X19326Y8967D1*
X19316Y8958D1*
X19297Y8948D1*
X19268D1*
X19249Y8958D1*
X19230Y8977D1*
X19221Y9005D1*
X19211Y9044D1*
X19201Y9063D1*
X19182Y9072D1*
X19163D1*
X19144Y9063D1*
X19135Y9034D1*
Y8996D1*
X19182Y9153D2*
X19173D1*
X19154Y9163D1*
X19144Y9172D1*
X19135Y9192D1*
Y9230D1*
X19144Y9249D1*
X19154Y9258D1*
X19173Y9268D1*
X19192D1*
X19211Y9258D1*
X19240Y9239D1*
X19335Y9144D1*
Y9278D1*
X19135Y9397D2*
X19144Y9368D1*
X19173Y9349D1*
X19221Y9339D1*
X19249D1*
X19297Y9349D1*
X19326Y9368D1*
X19335Y9397D1*
Y9416D1*
X19326Y9445D1*
X19297Y9464D1*
X19249Y9473D1*
X19221D1*
X19173Y9464D1*
X19144Y9445D1*
X19135Y9416D1*
Y9397D1*
X19173Y9464D2*
X19297Y9349D1*
X19201Y9535D2*
X19402D1*
X19230D2*
X19211Y9554D1*
X19201Y9573D1*
Y9602D1*
X19211Y9621D1*
X19230Y9640D1*
X19259Y9650D1*
X19278D1*
X19307Y9640D1*
X19326Y9621D1*
X19335Y9602D1*
Y9573D1*
X19326Y9554D1*
X19307Y9535D1*
X19134Y9836D2*
Y9712D1*
X19335D1*
X19230D2*
Y9788D1*
X6581Y13384D2*
X6562Y13374D1*
X6543Y13355D1*
X6534Y13336D1*
Y13298D1*
X6543Y13279D1*
X6562Y13260D1*
X6581Y13250D1*
X6610Y13240D1*
X6658D1*
X6687Y13250D1*
X6706Y13260D1*
X6725Y13279D1*
X6735Y13298D1*
Y13336D1*
X6725Y13355D1*
X6706Y13374D1*
X6687Y13384D1*
X6534Y13560D2*
Y13465D1*
X6620Y13455D1*
X6610Y13465D1*
X6601Y13494D1*
Y13522D1*
X6610Y13551D1*
X6629Y13570D1*
X6658Y13580D1*
X6677D1*
X6706Y13570D1*
X6725Y13551D1*
X6735Y13522D1*
Y13494D1*
X6725Y13465D1*
X6715Y13455D1*
X6696Y13446D1*
X6768Y13641D2*
Y13823D1*
X6572Y13885D2*
X6562Y13904D1*
X6534Y13933D1*
X6735D1*
X6826Y13286D2*
X6835Y13257D1*
X6854Y13248D1*
X6873D1*
X6892Y13257D1*
X6902Y13276D1*
X6912Y13315D1*
X6921Y13343D1*
X6940Y13362D1*
X6959Y13372D1*
X6988D1*
X7007Y13362D1*
X7017Y13353D1*
X7026Y13324D1*
Y13286D1*
X7017Y13257D1*
X7007Y13248D1*
X6988Y13238D1*
X6959D1*
X6940Y13248D1*
X6921Y13267D1*
X6912Y13295D1*
X6902Y13334D1*
X6892Y13353D1*
X6873Y13362D1*
X6854D1*
X6835Y13353D1*
X6826Y13324D1*
Y13286D1*
X6873Y13443D2*
X6864D1*
X6845Y13453D1*
X6835Y13462D1*
X6826Y13482D1*
Y13520D1*
X6835Y13539D1*
X6845Y13548D1*
X6864Y13558D1*
X6883D1*
X6902Y13548D1*
X6931Y13529D1*
X7026Y13434D1*
Y13568D1*
X6826Y13687D2*
X6835Y13658D1*
X6864Y13639D1*
X6912Y13629D1*
X6940D1*
X6988Y13639D1*
X7017Y13658D1*
X7026Y13687D1*
Y13706D1*
X7017Y13735D1*
X6988Y13754D1*
X6940Y13763D1*
X6912D1*
X6864Y13754D1*
X6835Y13735D1*
X6826Y13706D1*
Y13687D1*
X6864Y13754D2*
X6988Y13639D1*
X6892Y13825D2*
X7093D1*
X6921D2*
X6902Y13844D1*
X6892Y13863D1*
Y13892D1*
X6902Y13911D1*
X6921Y13930D1*
X6950Y13940D1*
X6969D1*
X6998Y13930D1*
X7017Y13911D1*
X7026Y13892D1*
Y13863D1*
X7017Y13844D1*
X6998Y13825D1*
X6825Y14126D2*
Y14002D1*
X7026D1*
X6921D2*
Y14078D1*
X27650Y7912D2*
X27640Y7931D1*
X27621Y7950D1*
X27602Y7959D1*
X27564D1*
X27545Y7950D1*
X27526Y7931D1*
X27516Y7912D1*
X27506Y7883D1*
Y7835D1*
X27516Y7806D1*
X27526Y7787D1*
X27545Y7768D1*
X27564Y7758D1*
X27602D1*
X27621Y7768D1*
X27640Y7787D1*
X27650Y7806D1*
X27826Y7959D2*
X27731D1*
X27721Y7873D1*
X27731Y7883D1*
X27759Y7892D1*
X27788D1*
X27817Y7883D1*
X27836Y7864D1*
X27845Y7835D1*
Y7816D1*
X27836Y7787D1*
X27817Y7768D1*
X27788Y7758D1*
X27759D1*
X27731Y7768D1*
X27721Y7778D1*
X27712Y7797D1*
X27907Y7725D2*
X28089D1*
X28160Y7911D2*
Y7921D1*
X28170Y7940D1*
X28179Y7950D1*
X28199Y7959D1*
X28237D1*
X28256Y7950D1*
X28265Y7940D1*
X28275Y7921D1*
Y7902D1*
X28265Y7883D1*
X28246Y7854D1*
X28151Y7758D1*
X28285D1*
X27505Y7688D2*
X27477Y7678D1*
X27467Y7659D1*
Y7640D1*
X27477Y7621D1*
X27496Y7611D1*
X27534Y7602D1*
X27563Y7592D1*
X27582Y7573D1*
X27591Y7554D1*
Y7525D1*
X27582Y7506D1*
X27572Y7496D1*
X27543Y7487D1*
X27505D1*
X27477Y7496D1*
X27467Y7506D1*
X27457Y7525D1*
Y7554D1*
X27467Y7573D1*
X27486Y7592D1*
X27515Y7602D1*
X27553Y7611D1*
X27572Y7621D1*
X27582Y7640D1*
Y7659D1*
X27572Y7678D1*
X27543Y7688D1*
X27505D1*
X27663Y7640D2*
Y7649D1*
X27672Y7669D1*
X27682Y7678D1*
X27701Y7688D1*
X27739D1*
X27758Y7678D1*
X27768Y7669D1*
X27777Y7649D1*
Y7630D1*
X27768Y7611D1*
X27749Y7583D1*
X27653Y7487D1*
X27787D1*
X27906Y7688D2*
X27877Y7678D1*
X27858Y7649D1*
X27849Y7602D1*
Y7573D1*
X27858Y7525D1*
X27877Y7496D1*
X27906Y7487D1*
X27925D1*
X27954Y7496D1*
X27973Y7525D1*
X27983Y7573D1*
Y7602D1*
X27973Y7649D1*
X27954Y7678D1*
X27925Y7688D1*
X27906D1*
X27973Y7649D2*
X27858Y7525D1*
X28044Y7621D2*
Y7420D1*
Y7592D2*
X28064Y7611D1*
X28083Y7621D1*
X28111D1*
X28131Y7611D1*
X28150Y7592D1*
X28159Y7563D1*
Y7544D1*
X28150Y7516D1*
X28131Y7496D1*
X28111Y7487D1*
X28083D1*
X28064Y7496D1*
X28044Y7516D1*
X28346Y7688D2*
X28221D1*
Y7487D1*
Y7592D2*
X28298D1*
X6874Y8769D2*
X6865Y8788D1*
X6846Y8808D1*
X6827Y8817D1*
X6788D1*
X6769Y8808D1*
X6750Y8788D1*
X6740Y8769D1*
X6731Y8741D1*
Y8693D1*
X6740Y8664D1*
X6750Y8645D1*
X6769Y8626D1*
X6788Y8616D1*
X6827D1*
X6846Y8626D1*
X6865Y8645D1*
X6874Y8664D1*
X7051Y8788D2*
X7041Y8807D1*
X7013Y8817D1*
X6994D1*
X6965Y8807D1*
X6946Y8779D1*
X6936Y8731D1*
Y8683D1*
X6946Y8645D1*
X6965Y8626D1*
X6994Y8616D1*
X7003D1*
X7032Y8626D1*
X7051Y8645D1*
X7060Y8674D1*
Y8683D1*
X7051Y8712D1*
X7032Y8731D1*
X7003Y8740D1*
X6994D1*
X6965Y8731D1*
X6946Y8712D1*
X6936Y8683D1*
X7122Y8583D2*
X7304D1*
X7366Y8779D2*
X7385Y8788D1*
X7414Y8817D1*
Y8616D1*
X6728Y8531D2*
X6699Y8522D1*
X6690Y8503D1*
Y8484D1*
X6699Y8465D1*
X6718Y8455D1*
X6757Y8445D1*
X6785Y8436D1*
X6804Y8417D1*
X6814Y8398D1*
Y8369D1*
X6804Y8350D1*
X6795Y8340D1*
X6766Y8331D1*
X6728D1*
X6699Y8340D1*
X6690Y8350D1*
X6680Y8369D1*
Y8398D1*
X6690Y8417D1*
X6709Y8436D1*
X6737Y8445D1*
X6776Y8455D1*
X6795Y8465D1*
X6804Y8484D1*
Y8503D1*
X6795Y8522D1*
X6766Y8531D1*
X6728D1*
X6885Y8484D2*
Y8493D1*
X6895Y8512D1*
X6904Y8522D1*
X6924Y8531D1*
X6962D1*
X6981Y8522D1*
X6990Y8512D1*
X7000Y8493D1*
Y8474D1*
X6990Y8455D1*
X6971Y8426D1*
X6876Y8331D1*
X7010D1*
X7129Y8531D2*
X7100Y8522D1*
X7081Y8493D1*
X7071Y8445D1*
Y8417D1*
X7081Y8369D1*
X7100Y8340D1*
X7129Y8331D1*
X7148D1*
X7177Y8340D1*
X7196Y8369D1*
X7205Y8417D1*
Y8445D1*
X7196Y8493D1*
X7177Y8522D1*
X7148Y8531D1*
X7129D1*
X7196Y8493D2*
X7081Y8369D1*
X7267Y8465D2*
Y8264D1*
Y8436D2*
X7286Y8455D1*
X7305Y8465D1*
X7334D1*
X7353Y8455D1*
X7372Y8436D1*
X7382Y8407D1*
Y8388D1*
X7372Y8359D1*
X7353Y8340D1*
X7334Y8331D1*
X7305D1*
X7286Y8340D1*
X7267Y8359D1*
X7568Y8532D2*
X7444D1*
Y8331D1*
Y8436D2*
X7520D1*
X27738Y12605D2*
X27729Y12624D1*
X27710Y12644D1*
X27691Y12653D1*
X27652D1*
X27633Y12644D1*
X27614Y12624D1*
X27604Y12605D1*
X27595Y12577D1*
Y12529D1*
X27604Y12500D1*
X27614Y12481D1*
X27633Y12462D1*
X27652Y12452D1*
X27691D1*
X27710Y12462D1*
X27729Y12481D1*
X27738Y12500D1*
X27915Y12624D2*
X27905Y12643D1*
X27877Y12653D1*
X27858D1*
X27829Y12643D1*
X27810Y12615D1*
X27800Y12567D1*
Y12519D1*
X27810Y12481D1*
X27829Y12462D1*
X27858Y12452D1*
X27867D1*
X27896Y12462D1*
X27915Y12481D1*
X27924Y12510D1*
Y12519D1*
X27915Y12548D1*
X27896Y12567D1*
X27867Y12576D1*
X27858D1*
X27829Y12567D1*
X27810Y12548D1*
X27800Y12519D1*
X27986Y12419D2*
X28168D1*
X28239Y12605D2*
Y12615D1*
X28249Y12634D1*
X28258Y12643D1*
X28278Y12653D1*
X28316D1*
X28335Y12643D1*
X28344Y12634D1*
X28354Y12615D1*
Y12596D1*
X28344Y12576D1*
X28325Y12548D1*
X28230Y12452D1*
X28364D1*
X27641Y12339D2*
X27612Y12329D1*
X27603Y12310D1*
Y12291D1*
X27612Y12272D1*
X27631Y12262D1*
X27670Y12253D1*
X27698Y12243D1*
X27717Y12224D1*
X27727Y12205D1*
Y12176D1*
X27717Y12157D1*
X27708Y12148D1*
X27679Y12138D1*
X27641D1*
X27612Y12148D1*
X27603Y12157D1*
X27593Y12176D1*
Y12205D1*
X27603Y12224D1*
X27622Y12243D1*
X27650Y12253D1*
X27689Y12262D1*
X27708Y12272D1*
X27717Y12291D1*
Y12310D1*
X27708Y12329D1*
X27679Y12339D1*
X27641D1*
X27798Y12291D2*
Y12301D1*
X27808Y12320D1*
X27817Y12329D1*
X27837Y12339D1*
X27875D1*
X27894Y12329D1*
X27903Y12320D1*
X27913Y12301D1*
Y12282D1*
X27903Y12262D1*
X27884Y12234D1*
X27789Y12138D1*
X27923D1*
X28042Y12339D2*
X28013Y12329D1*
X27994Y12301D1*
X27984Y12253D1*
Y12224D1*
X27994Y12176D1*
X28013Y12148D1*
X28042Y12138D1*
X28061D1*
X28090Y12148D1*
X28109Y12176D1*
X28118Y12224D1*
Y12253D1*
X28109Y12301D1*
X28090Y12329D1*
X28061Y12339D1*
X28042D1*
X28109Y12301D2*
X27994Y12176D1*
X28180Y12272D2*
Y12071D1*
Y12243D2*
X28199Y12262D1*
X28218Y12272D1*
X28247D1*
X28266Y12262D1*
X28285Y12243D1*
X28295Y12215D1*
Y12195D1*
X28285Y12167D1*
X28266Y12148D1*
X28247Y12138D1*
X28218D1*
X28199Y12148D1*
X28180Y12167D1*
X28481Y12339D2*
X28357D1*
Y12138D1*
Y12243D2*
X28433D1*
X14260Y18364D2*
Y18163D1*
X14327D1*
X14356Y18172D1*
X14375Y18191D1*
X14384Y18211D1*
X14394Y18239D1*
Y18287D1*
X14384Y18316D1*
X14375Y18335D1*
X14356Y18354D1*
X14327Y18364D1*
X14260D1*
X14456Y18325D2*
X14475Y18335D1*
X14504Y18363D1*
Y18163D1*
X18154Y7850D2*
X18029D1*
Y7649D1*
X18154D1*
X18029Y7754D2*
X18106D1*
X18215Y7783D2*
X18321Y7649D1*
Y7783D2*
X18215Y7649D1*
X18411Y7850D2*
Y7687D1*
X18421Y7659D1*
X18440Y7649D1*
X18459D1*
X18382Y7783D2*
X18449D1*
X18521D2*
Y7649D1*
Y7726D2*
X18530Y7754D1*
X18549Y7774D1*
X18569Y7783D1*
X18597D1*
X18774D2*
Y7649D1*
Y7754D2*
X18755Y7774D1*
X18736Y7783D1*
X18707D1*
X18688Y7774D1*
X18669Y7754D1*
X18659Y7726D1*
Y7707D1*
X18669Y7678D1*
X18688Y7659D1*
X18707Y7649D1*
X18736D1*
X18755Y7659D1*
X18774Y7678D1*
X11209Y15712D2*
X11085D1*
Y15511D1*
Y15616D2*
X11161D1*
X11271Y15674D2*
X11290Y15683D1*
X11319Y15712D1*
Y15511D1*
X5985Y4245D2*
Y4044D1*
X6100D1*
X6162Y4245D2*
Y4044D1*
X6377D2*
Y4245D1*
X6300Y4044D1*
X6224Y4245D1*
Y4044D1*
X6438Y4245D2*
Y4044D1*
X6567Y4245D2*
Y4044D1*
X6500Y4245D2*
X6634D1*
X6696Y4011D2*
X6878D1*
X6939Y4207D2*
X6959Y4217D1*
X6987Y4245D1*
Y4044D1*
X28272Y4254D2*
Y4053D1*
X28386D1*
X28448Y4254D2*
Y4053D1*
X28663D2*
Y4254D1*
X28586Y4053D1*
X28510Y4254D1*
Y4053D1*
X28725Y4254D2*
Y4053D1*
X28853Y4254D2*
Y4053D1*
X28786Y4254D2*
X28920D1*
X28982Y4020D2*
X29164D1*
X29235Y4206D2*
Y4216D1*
X29245Y4235D1*
X29254Y4245D1*
X29274Y4254D1*
X29312D1*
X29331Y4245D1*
X29340Y4235D1*
X29350Y4216D1*
Y4197D1*
X29340Y4178D1*
X29321Y4149D1*
X29226Y4053D1*
X29360D1*
X4739Y13700D2*
Y13901D1*
X4663Y13700D1*
X4586Y13901D1*
Y13700D1*
X4849Y13834D2*
X4830Y13824D1*
X4811Y13805D1*
X4801Y13776D1*
Y13757D1*
X4811Y13729D1*
X4830Y13710D1*
X4849Y13700D1*
X4878D1*
X4897Y13710D1*
X4916Y13729D1*
X4926Y13757D1*
Y13776D1*
X4916Y13805D1*
X4897Y13824D1*
X4878Y13834D1*
X4849D1*
X5016Y13901D2*
Y13738D1*
X5026Y13710D1*
X5045Y13700D1*
X5064D1*
X4987Y13834D2*
X5054D1*
X5173D2*
X5154Y13824D1*
X5135Y13805D1*
X5126Y13776D1*
Y13757D1*
X5135Y13729D1*
X5154Y13710D1*
X5173Y13700D1*
X5202D1*
X5221Y13710D1*
X5240Y13729D1*
X5250Y13757D1*
Y13776D1*
X5240Y13805D1*
X5221Y13824D1*
X5202Y13834D1*
X5173D1*
X5312D2*
Y13700D1*
Y13776D2*
X5321Y13805D1*
X5341Y13824D1*
X5360Y13834D1*
X5388D1*
X5450Y13667D2*
X5632D1*
X5694Y13862D2*
X5713Y13872D1*
X5742Y13901D1*
Y13700D1*
X29774Y12491D2*
Y12692D1*
X29697Y12491D1*
X29621Y12692D1*
Y12491D1*
X29883Y12625D2*
X29864Y12616D1*
X29845Y12596D1*
X29835Y12568D1*
Y12549D1*
X29845Y12520D1*
X29864Y12501D1*
X29883Y12491D1*
X29912D1*
X29931Y12501D1*
X29950Y12520D1*
X29960Y12549D1*
Y12568D1*
X29950Y12596D1*
X29931Y12616D1*
X29912Y12625D1*
X29883D1*
X30050Y12692D2*
Y12529D1*
X30060Y12501D1*
X30079Y12491D1*
X30098D1*
X30022Y12625D2*
X30089D1*
X30208D2*
X30189Y12616D1*
X30169Y12596D1*
X30160Y12568D1*
Y12549D1*
X30169Y12520D1*
X30189Y12501D1*
X30208Y12491D1*
X30236D1*
X30256Y12501D1*
X30275Y12520D1*
X30284Y12549D1*
Y12568D1*
X30275Y12596D1*
X30256Y12616D1*
X30236Y12625D1*
X30208D1*
X30346D2*
Y12491D1*
Y12568D2*
X30356Y12596D1*
X30375Y12616D1*
X30394Y12625D1*
X30423D1*
X30485Y12458D2*
X30666D1*
X30738Y12644D2*
Y12654D1*
X30747Y12673D1*
X30757Y12682D1*
X30776Y12692D1*
X30814D1*
X30833Y12682D1*
X30843Y12673D1*
X30853Y12654D1*
Y12635D1*
X30843Y12615D1*
X30824Y12587D1*
X30728Y12491D1*
X30862D1*
X4659Y15036D2*
Y15237D1*
X4582Y15036D1*
X4506Y15237D1*
Y15036D1*
X4855Y15208D2*
X4836Y15227D1*
X4807Y15237D1*
X4769D1*
X4740Y15227D1*
X4721Y15208D1*
Y15189D1*
X4730Y15170D1*
X4740Y15160D1*
X4759Y15151D1*
X4816Y15132D1*
X4836Y15122D1*
X4845Y15113D1*
X4855Y15094D1*
Y15065D1*
X4836Y15046D1*
X4807Y15036D1*
X4769D1*
X4740Y15046D1*
X4721Y15065D1*
X4983Y15237D2*
Y15036D1*
X4916Y15237D2*
X5050D1*
X5265Y15036D2*
X5189Y15237D1*
X5112Y15036D1*
X5141Y15103D2*
X5237D1*
X5394Y15237D2*
Y15036D1*
X5327Y15237D2*
X5461D1*
X5523Y15003D2*
X5705D1*
X5766Y15199D2*
X5786Y15208D1*
X5814Y15237D1*
Y15036D1*
X4465Y14190D2*
X4551D1*
X4580Y14200D1*
X4590Y14209D1*
X4599Y14228D1*
Y14247D1*
X4590Y14266D1*
X4580Y14276D1*
X4551Y14286D1*
X4465D1*
Y14085D1*
X4532Y14190D2*
X4599Y14085D1*
X4785Y14286D2*
X4661D1*
Y14085D1*
X4785D1*
X4661Y14190D2*
X4738D1*
X4847Y14286D2*
Y14085D1*
X4914D1*
X4943Y14094D1*
X4962Y14113D1*
X4971Y14133D1*
X4981Y14161D1*
Y14209D1*
X4971Y14238D1*
X4962Y14257D1*
X4943Y14276D1*
X4914Y14286D1*
X4847D1*
X5062Y14094D2*
X5052Y14085D1*
X5043Y14094D1*
X5052Y14104D1*
X5062Y14094D1*
Y14075D1*
X5052Y14056D1*
X5043Y14047D1*
X5124Y14247D2*
X5143Y14257D1*
X5172Y14285D1*
Y14085D1*
X5291Y14285D2*
X5262Y14276D1*
X5243Y14247D1*
X5233Y14199D1*
Y14171D1*
X5243Y14123D1*
X5262Y14094D1*
X5291Y14085D1*
X5310D1*
X5339Y14094D1*
X5358Y14123D1*
X5367Y14171D1*
Y14199D1*
X5358Y14247D1*
X5339Y14276D1*
X5310Y14285D1*
X5291D1*
X5358Y14247D2*
X5243Y14123D1*
X5429Y14219D2*
Y14085D1*
Y14180D2*
X5458Y14209D1*
X5477Y14219D1*
X5506D1*
X5525Y14209D1*
X5534Y14180D1*
Y14085D1*
Y14180D2*
X5563Y14209D1*
X5582Y14219D1*
X5611D1*
X5630Y14209D1*
X5640Y14180D1*
Y14085D1*
X5855D2*
X5778Y14286D1*
X5702Y14085D1*
X5730Y14152D2*
X5826D1*
X29678Y14811D2*
Y15012D1*
X29601Y14811D1*
X29525Y15012D1*
Y14811D1*
X29873Y14983D2*
X29854Y15002D1*
X29826Y15012D1*
X29787D1*
X29759Y15002D1*
X29740Y14983D1*
Y14964D1*
X29749Y14945D1*
X29759Y14935D1*
X29778Y14926D1*
X29835Y14906D1*
X29854Y14897D1*
X29864Y14887D1*
X29873Y14868D1*
Y14839D1*
X29854Y14820D1*
X29826Y14811D1*
X29787D1*
X29759Y14820D1*
X29740Y14839D1*
X30002Y15012D2*
Y14811D1*
X29935Y15012D2*
X30069D1*
X30284Y14811D2*
X30207Y15012D1*
X30131Y14811D1*
X30160Y14878D2*
X30255D1*
X30413Y15012D2*
Y14811D1*
X30346Y15012D2*
X30480D1*
X30542Y14777D2*
X30723D1*
X30795Y14964D2*
Y14973D1*
X30804Y14992D1*
X30814Y15002D1*
X30833Y15011D1*
X30871D1*
X30890Y15002D1*
X30900Y14992D1*
X30910Y14973D1*
Y14954D1*
X30900Y14935D1*
X30881Y14906D1*
X30785Y14811D1*
X30919D1*
X29551Y13927D2*
X29637D1*
X29666Y13936D1*
X29676Y13946D1*
X29685Y13965D1*
Y13984D1*
X29676Y14003D1*
X29666Y14013D1*
X29637Y14022D1*
X29551D1*
Y13821D1*
X29618Y13927D2*
X29685Y13821D1*
X29871Y14022D2*
X29747D1*
Y13821D1*
X29871D1*
X29747Y13927D2*
X29823D1*
X29933Y14022D2*
Y13821D1*
X30000D1*
X30029Y13831D1*
X30048Y13850D1*
X30057Y13869D1*
X30067Y13898D1*
Y13946D1*
X30057Y13975D1*
X30048Y13994D1*
X30029Y14013D1*
X30000Y14022D1*
X29933D1*
X30148Y13831D2*
X30138Y13821D1*
X30129Y13831D1*
X30138Y13841D1*
X30148Y13831D1*
Y13812D1*
X30138Y13793D1*
X30129Y13783D1*
X30210Y13984D2*
X30229Y13994D1*
X30258Y14022D1*
Y13821D1*
X30377Y14022D2*
X30348Y14013D1*
X30329Y13984D1*
X30319Y13936D1*
Y13907D1*
X30329Y13860D1*
X30348Y13831D1*
X30377Y13821D1*
X30396D1*
X30425Y13831D1*
X30444Y13860D1*
X30453Y13907D1*
Y13936D1*
X30444Y13984D1*
X30425Y14013D1*
X30396Y14022D1*
X30377D1*
X30444Y13984D2*
X30329Y13860D1*
X30515Y13955D2*
Y13821D1*
Y13917D2*
X30544Y13946D1*
X30563Y13955D1*
X30592D1*
X30611Y13946D1*
X30620Y13917D1*
Y13821D1*
Y13917D2*
X30649Y13946D1*
X30668Y13955D1*
X30697D1*
X30716Y13946D1*
X30726Y13917D1*
Y13821D1*
X30941D2*
X30864Y14022D1*
X30787Y13821D1*
X30816Y13888D2*
X30912D1*
X22563Y4342D2*
Y4428D1*
X22553Y4457D1*
X22544Y4467D1*
X22525Y4476D1*
X22496D1*
X22477Y4467D1*
X22467Y4457D1*
X22458Y4428D1*
Y4342D1*
X22659D1*
X22505Y4681D2*
X22486Y4672D1*
X22467Y4653D1*
X22458Y4634D1*
Y4595D1*
X22467Y4576D1*
X22486Y4557D1*
X22505Y4547D1*
X22534Y4538D1*
X22582D1*
X22611Y4547D1*
X22630Y4557D1*
X22649Y4576D1*
X22659Y4595D1*
Y4634D1*
X22649Y4653D1*
X22630Y4672D1*
X22611Y4681D1*
X22582D1*
Y4634D1*
X22659Y4896D2*
X22458D1*
X22659Y4820D1*
X22458Y4743D1*
X22659D1*
X17711Y16153D2*
X17797D1*
X17825Y16163D1*
X17835Y16172D1*
X17845Y16191D1*
Y16220D1*
X17835Y16239D1*
X17825Y16249D1*
X17797Y16258D1*
X17711D1*
Y16057D1*
X17906Y16258D2*
X17954Y16057D1*
X18002Y16258D1*
X18050Y16057D1*
X18098Y16258D1*
X18160Y16163D2*
X18246D1*
X18274Y16172D1*
X18284Y16182D1*
X18294Y16201D1*
Y16220D1*
X18284Y16239D1*
X18274Y16249D1*
X18246Y16258D1*
X18160D1*
Y16057D1*
X18227Y16163D2*
X18294Y16057D1*
X16899Y15247D2*
X16889Y15266D1*
X16870Y15286D1*
X16851Y15295D1*
X16813D1*
X16793Y15286D1*
X16774Y15266D1*
X16765Y15247D1*
X16755Y15219D1*
Y15171D1*
X16765Y15142D1*
X16774Y15123D1*
X16793Y15104D1*
X16813Y15094D1*
X16851D1*
X16870Y15104D1*
X16889Y15123D1*
X16899Y15142D1*
Y15171D1*
X16851D1*
X16960Y15199D2*
X17046D1*
X17075Y15209D1*
X17085Y15219D1*
X17094Y15238D1*
Y15257D1*
X17085Y15276D1*
X17075Y15286D1*
X17046Y15295D1*
X16960D1*
Y15094D1*
X17027Y15199D2*
X17094Y15094D1*
X17290Y15295D2*
Y15094D1*
X17156Y15295D1*
Y15094D1*
X17371Y15104D2*
X17361Y15094D1*
X17352Y15104D1*
X17361Y15113D1*
X17371Y15104D1*
Y15085D1*
X17361Y15065D1*
X17352Y15056D1*
X17433Y15257D2*
X17452Y15266D1*
X17481Y15295D1*
Y15094D1*
X17600Y15295D2*
X17571Y15285D1*
X17552Y15257D1*
X17543Y15209D1*
Y15180D1*
X17552Y15132D1*
X17571Y15104D1*
X17600Y15094D1*
X17619D1*
X17648Y15104D1*
X17667Y15132D1*
X17677Y15180D1*
Y15209D1*
X17667Y15257D1*
X17648Y15285D1*
X17619Y15295D1*
X17600D1*
X17667Y15257D2*
X17552Y15132D1*
X17738Y15228D2*
Y15094D1*
Y15190D2*
X17767Y15219D1*
X17786Y15228D1*
X17815D1*
X17834Y15219D1*
X17844Y15190D1*
Y15094D1*
Y15190D2*
X17872Y15219D1*
X17891Y15228D1*
X17920D1*
X17939Y15219D1*
X17949Y15190D1*
Y15094D1*
X18164D2*
X18087Y15295D1*
X18011Y15094D1*
X18039Y15161D2*
X18135D1*
X18556Y16018D2*
Y16105D1*
X18546Y16133D1*
X18536Y16143D1*
X18517Y16152D1*
X18489D1*
X18470Y16143D1*
X18460Y16133D1*
X18450Y16105D1*
Y16018D1*
X18651D1*
X18450Y16214D2*
X18651Y16262D1*
X18450Y16310D1*
X18651Y16358D1*
X18450Y16406D1*
X18546Y16467D2*
Y16553D1*
X18536Y16582D1*
X18527Y16592D1*
X18508Y16601D1*
X18489D1*
X18470Y16592D1*
X18460Y16582D1*
X18450Y16553D1*
Y16467D1*
X18651D1*
X18546Y16534D2*
X18651Y16601D1*
X18684Y16663D2*
Y16845D1*
X18450Y16907D2*
X18651D1*
Y16974D1*
X18642Y17002D1*
X18623Y17022D1*
X18603Y17031D1*
X18575Y17041D1*
X18527D1*
X18498Y17031D1*
X18479Y17022D1*
X18460Y17002D1*
X18450Y16974D1*
Y16907D1*
X18651Y17256D2*
X18450Y17179D1*
X18651Y17102D1*
X18584Y17131D2*
Y17227D1*
X18450Y17384D2*
X18651D1*
X18450Y17317D2*
Y17451D1*
X18684Y17513D2*
Y17695D1*
X18450Y17757D2*
X18651D1*
X18450Y17952D2*
X18651D1*
X18450Y17818D1*
X18651D1*
X19961Y13377D2*
X20047D1*
X20075Y13387D1*
X20085Y13396D1*
X20095Y13415D1*
Y13435D1*
X20085Y13454D1*
X20075Y13463D1*
X20047Y13473D1*
X19961D1*
Y13272D1*
X20028Y13377D2*
X20095Y13272D1*
X20156Y13434D2*
X20176Y13444D1*
X20204Y13473D1*
Y13272D1*
X21542Y13526D2*
X21647D1*
X21590Y13450D1*
X21619D1*
X21638Y13440D1*
X21647Y13431D1*
X21657Y13402D1*
Y13383D1*
X21647Y13354D1*
X21628Y13335D1*
X21599Y13325D1*
X21571D1*
X21542Y13335D1*
X21533Y13345D1*
X21523Y13364D1*
X21738Y13526D2*
X21843D1*
X21786Y13450D1*
X21814D1*
X21833Y13440D1*
X21843Y13431D1*
X21853Y13402D1*
Y13383D1*
X21843Y13354D1*
X21824Y13335D1*
X21795Y13325D1*
X21766D1*
X21738Y13335D1*
X21728Y13345D1*
X21719Y13364D1*
X21972Y13526D2*
X21943Y13517D1*
X21924Y13488D1*
X21914Y13440D1*
Y13411D1*
X21924Y13364D1*
X21943Y13335D1*
X21972Y13325D1*
X21991D1*
X22020Y13335D1*
X22039Y13364D1*
X22048Y13411D1*
Y13440D1*
X22039Y13488D1*
X22020Y13517D1*
X21991Y13526D1*
X21972D1*
X22039Y13488D2*
X21924Y13364D1*
X19502Y15075D2*
X19588D1*
X19617Y15084D1*
X19627Y15094D1*
X19636Y15113D1*
Y15132D1*
X19627Y15151D1*
X19617Y15161D1*
X19588Y15170D1*
X19502D1*
Y14970D1*
X19569Y15075D2*
X19636Y14970D1*
X19717Y15170D2*
X19822D1*
X19765Y15094D1*
X19794D1*
X19813Y15084D1*
X19822Y15075D1*
X19832Y15046D1*
Y15027D1*
X19822Y14998D1*
X19803Y14979D1*
X19775Y14970D1*
X19746D1*
X19717Y14979D1*
X19708Y14989D1*
X19698Y15008D1*
X21177Y15190D2*
X21282D1*
X21225Y15113D1*
X21254D1*
X21273Y15104D1*
X21282Y15094D1*
X21292Y15066D1*
Y15047D1*
X21282Y15018D1*
X21263Y14999D1*
X21234Y14989D1*
X21206D1*
X21177Y14999D1*
X21168Y15008D1*
X21158Y15027D1*
X21373Y15190D2*
X21478D1*
X21421Y15113D1*
X21449D1*
X21468Y15104D1*
X21478Y15094D1*
X21488Y15066D1*
Y15047D1*
X21478Y15018D1*
X21459Y14999D1*
X21430Y14989D1*
X21401D1*
X21373Y14999D1*
X21363Y15008D1*
X21354Y15027D1*
X21607Y15190D2*
X21578Y15180D1*
X21559Y15152D1*
X21549Y15104D1*
Y15075D1*
X21559Y15027D1*
X21578Y14999D1*
X21607Y14989D1*
X21626D1*
X21655Y14999D1*
X21674Y15027D1*
X21683Y15075D1*
Y15104D1*
X21674Y15152D1*
X21655Y15180D1*
X21626Y15190D1*
X21607D1*
X21674Y15152D2*
X21559Y15027D1*
X6592Y15039D2*
X6678D1*
X6707Y15049D1*
X6717Y15058D1*
X6726Y15077D1*
Y15096D1*
X6717Y15115D1*
X6707Y15125D1*
X6678Y15135D1*
X6592D1*
Y14934D1*
X6659Y15039D2*
X6726Y14934D1*
X6788Y15096D2*
X6807Y15106D1*
X6836Y15134D1*
Y14934D1*
X6955Y15134D2*
X6926Y15125D1*
X6907Y15096D1*
X6898Y15048D1*
Y15020D1*
X6907Y14972D1*
X6926Y14943D1*
X6955Y14934D1*
X6974D1*
X7003Y14943D1*
X7022Y14972D1*
X7032Y15020D1*
Y15048D1*
X7022Y15096D1*
X7003Y15125D1*
X6974Y15134D1*
X6955D1*
X7022Y15096D2*
X6907Y14972D1*
X7093Y14900D2*
X7275D1*
X7337Y15096D2*
X7356Y15106D1*
X7385Y15134D1*
Y14934D1*
X6745Y14380D2*
X6850D1*
X6793Y14303D1*
X6822D1*
X6841Y14294D1*
X6850Y14284D1*
X6860Y14256D1*
Y14237D1*
X6850Y14208D1*
X6831Y14189D1*
X6802Y14179D1*
X6774D1*
X6745Y14189D1*
X6736Y14198D1*
X6726Y14217D1*
X6941Y14380D2*
X7046D1*
X6989Y14303D1*
X7017D1*
X7036Y14294D1*
X7046Y14284D1*
X7055Y14256D1*
Y14237D1*
X7046Y14208D1*
X7027Y14189D1*
X6998Y14179D1*
X6969D1*
X6941Y14189D1*
X6931Y14198D1*
X6922Y14217D1*
X7175Y14380D2*
X7146Y14370D1*
X7127Y14342D1*
X7117Y14294D1*
Y14265D1*
X7127Y14217D1*
X7146Y14189D1*
X7175Y14179D1*
X7194D1*
X7222Y14189D1*
X7241Y14217D1*
X7251Y14265D1*
Y14294D1*
X7241Y14342D1*
X7222Y14370D1*
X7194Y14380D1*
X7175D1*
X7241Y14342D2*
X7127Y14217D1*
X28664Y13315D2*
X28750D1*
X28779Y13325D1*
X28788Y13335D1*
X28798Y13354D1*
Y13373D1*
X28788Y13392D1*
X28779Y13402D1*
X28750Y13411D1*
X28664D1*
Y13210D1*
X28731Y13315D2*
X28798Y13210D1*
X28860Y13373D2*
X28879Y13382D1*
X28908Y13411D1*
Y13210D1*
X29027Y13411D2*
X28998Y13401D1*
X28979Y13373D1*
X28969Y13325D1*
Y13296D1*
X28979Y13248D1*
X28998Y13220D1*
X29027Y13210D1*
X29046D1*
X29075Y13220D1*
X29094Y13248D1*
X29103Y13296D1*
Y13325D1*
X29094Y13373D1*
X29075Y13401D1*
X29046Y13411D1*
X29027D1*
X29094Y13373D2*
X28979Y13248D1*
X29165Y13177D2*
X29347D1*
X29418Y13363D2*
Y13373D1*
X29428Y13392D1*
X29437Y13401D1*
X29457Y13411D1*
X29495D1*
X29514Y13401D1*
X29523Y13392D1*
X29533Y13373D1*
Y13354D1*
X29523Y13334D1*
X29504Y13306D1*
X29409Y13210D1*
X29543D1*
X30815Y13401D2*
X30920D1*
X30862Y13324D1*
X30891D1*
X30910Y13315D1*
X30920Y13305D1*
X30929Y13276D1*
Y13257D1*
X30920Y13229D1*
X30901Y13209D1*
X30872Y13200D1*
X30843D1*
X30815Y13209D1*
X30805Y13219D1*
X30795Y13238D1*
X31010Y13401D2*
X31115D1*
X31058Y13324D1*
X31087D1*
X31106Y13315D1*
X31115Y13305D1*
X31125Y13276D1*
Y13257D1*
X31115Y13229D1*
X31096Y13209D1*
X31068Y13200D1*
X31039D1*
X31010Y13209D1*
X31001Y13219D1*
X30991Y13238D1*
X31244Y13401D2*
X31216Y13391D1*
X31196Y13362D1*
X31187Y13315D1*
Y13286D1*
X31196Y13238D1*
X31216Y13209D1*
X31244Y13200D1*
X31263D1*
X31292Y13209D1*
X31311Y13238D1*
X31321Y13286D1*
Y13315D1*
X31311Y13362D1*
X31292Y13391D1*
X31263Y13401D1*
X31244D1*
X31311Y13362D2*
X31196Y13238D1*
X7367Y13274D2*
Y13360D1*
X7358Y13389D1*
X7348Y13399D1*
X7329Y13408D1*
X7310D1*
X7291Y13399D1*
X7281Y13389D1*
X7272Y13360D1*
Y13274D1*
X7473D1*
X7367Y13341D2*
X7473Y13408D1*
Y13566D2*
X7272D1*
X7406Y13470D1*
Y13613D1*
X7506Y13675D2*
Y13857D1*
X7310Y13919D2*
X7300Y13938D1*
X7272Y13967D1*
X7473D1*
X7602Y13244D2*
X7592Y13263D1*
X7564Y13292D1*
X7764D1*
X7563Y13353D2*
X7764D1*
X7630Y13449D2*
X7726Y13353D1*
X7688Y13392D2*
X7764Y13459D1*
X26991Y7154D2*
Y7240D1*
X26982Y7269D1*
X26972Y7278D1*
X26953Y7288D1*
X26934D1*
X26915Y7278D1*
X26905Y7269D1*
X26896Y7240D1*
Y7154D1*
X27097D1*
X26991Y7221D2*
X27097Y7288D1*
Y7445D2*
X26896D1*
X27030Y7350D1*
Y7493D1*
X27130Y7555D2*
Y7737D1*
X26944Y7808D2*
X26934D1*
X26915Y7818D1*
X26905Y7827D1*
X26896Y7846D1*
Y7885D1*
X26905Y7904D1*
X26915Y7913D1*
X26934Y7923D1*
X26953D1*
X26972Y7913D1*
X27001Y7894D1*
X27097Y7798D1*
Y7932D1*
X26942Y9235D2*
X26933Y9254D1*
X26904Y9283D1*
X27105D1*
X26904Y9345D2*
X27105D1*
X26971Y9440D2*
X27067Y9345D1*
X27028Y9383D2*
X27105Y9450D1*
X6751Y11261D2*
X6837D1*
X6866Y11271D1*
X6876Y11280D1*
X6885Y11300D1*
Y11319D1*
X6876Y11338D1*
X6866Y11347D1*
X6837Y11357D1*
X6751D1*
Y11156D1*
X6818Y11261D2*
X6885Y11156D1*
X7062Y11357D2*
X6966D1*
X6957Y11271D1*
X6966Y11280D1*
X6995Y11290D1*
X7024D1*
X7052Y11280D1*
X7071Y11261D1*
X7081Y11233D1*
Y11214D1*
X7071Y11185D1*
X7052Y11166D1*
X7024Y11156D1*
X6995D1*
X6966Y11166D1*
X6957Y11175D1*
X6947Y11194D1*
X7143Y11123D2*
X7324D1*
X7386Y11319D2*
X7405Y11328D1*
X7434Y11357D1*
Y11156D1*
X7109Y10977D2*
X7128Y10987D1*
X7157Y11015D1*
Y10815D1*
X27578Y9587D2*
X27664D1*
X27693Y9597D1*
X27702Y9606D1*
X27712Y9625D1*
Y9645D1*
X27702Y9664D1*
X27693Y9673D1*
X27664Y9683D1*
X27578D1*
Y9482D1*
X27645Y9587D2*
X27712Y9482D1*
X27888Y9683D2*
X27793D1*
X27783Y9597D1*
X27793Y9606D1*
X27822Y9616D1*
X27850D1*
X27879Y9606D1*
X27898Y9587D1*
X27908Y9558D1*
Y9539D1*
X27898Y9511D1*
X27879Y9491D1*
X27850Y9482D1*
X27822D1*
X27793Y9491D1*
X27783Y9501D1*
X27774Y9520D1*
X27969Y9449D2*
X28151D1*
X28222Y9635D2*
Y9644D1*
X28232Y9664D1*
X28241Y9673D1*
X28261Y9683D1*
X28299D1*
X28318Y9673D1*
X28327Y9664D1*
X28337Y9644D1*
Y9625D1*
X28327Y9606D1*
X28308Y9578D1*
X28213Y9482D1*
X28347D1*
X27900Y9348D2*
X27920Y9358D1*
X27948Y9387D1*
Y9186D1*
X14620Y10320D2*
Y10406D1*
X14610Y10435D1*
X14601Y10445D1*
X14582Y10454D1*
X14562D1*
X14543Y10445D1*
X14534Y10435D1*
X14524Y10406D1*
Y10320D1*
X14725D1*
X14620Y10387D2*
X14725Y10454D1*
X14553Y10631D2*
X14534Y10621D1*
X14524Y10592D1*
Y10573D1*
X14534Y10545D1*
X14563Y10525D1*
X14610Y10516D1*
X14658D1*
X14696Y10525D1*
X14716Y10545D1*
X14725Y10573D1*
Y10583D1*
X14716Y10611D1*
X14696Y10631D1*
X14668Y10640D1*
X14658D1*
X14629Y10631D1*
X14610Y10611D1*
X14601Y10583D1*
Y10573D1*
X14610Y10545D1*
X14629Y10525D1*
X14658Y10516D1*
X14758Y10702D2*
Y10884D1*
X14563Y10945D2*
X14553Y10965D1*
X14524Y10993D1*
X14725D1*
X14529Y12433D2*
Y12338D1*
X14615Y12328D1*
X14605Y12338D1*
X14596Y12366D1*
Y12395D1*
X14605Y12424D1*
X14624Y12443D1*
X14653Y12452D1*
X14672D1*
X14701Y12443D1*
X14720Y12424D1*
X14729Y12395D1*
Y12366D1*
X14720Y12338D1*
X14710Y12328D1*
X14691Y12318D1*
X14557Y12629D2*
X14538Y12619D1*
X14529Y12591D1*
Y12572D1*
X14538Y12543D1*
X14567Y12524D1*
X14615Y12514D1*
X14662D1*
X14701Y12524D1*
X14720Y12543D1*
X14729Y12572D1*
Y12581D1*
X14720Y12610D1*
X14701Y12629D1*
X14672Y12638D1*
X14662D1*
X14634Y12629D1*
X14615Y12610D1*
X14605Y12581D1*
Y12572D1*
X14615Y12543D1*
X14634Y12524D1*
X14662Y12514D1*
X14529Y12700D2*
X14729D1*
X14596Y12796D2*
X14691Y12700D1*
X14653Y12738D2*
X14729Y12805D1*
X20185Y7890D2*
Y7976D1*
X20175Y8005D1*
X20166Y8015D1*
X20147Y8024D1*
X20128D1*
X20109Y8015D1*
X20099Y8005D1*
X20089Y7976D1*
Y7890D1*
X20290D1*
X20185Y7957D2*
X20290Y8024D1*
X20118Y8201D2*
X20099Y8191D1*
X20090Y8163D1*
Y8144D1*
X20099Y8115D1*
X20128Y8096D1*
X20176Y8086D1*
X20223D1*
X20262Y8096D1*
X20281Y8115D1*
X20290Y8144D1*
Y8153D1*
X20281Y8182D1*
X20262Y8201D1*
X20233Y8210D1*
X20223D1*
X20195Y8201D1*
X20176Y8182D1*
X20166Y8153D1*
Y8144D1*
X20176Y8115D1*
X20195Y8096D1*
X20223Y8086D1*
X20324Y8272D2*
Y8454D1*
X20137Y8525D2*
X20128D1*
X20109Y8535D1*
X20099Y8544D1*
X20090Y8564D1*
Y8602D1*
X20099Y8621D1*
X20109Y8630D1*
X20128Y8640D1*
X20147D1*
X20166Y8630D1*
X20195Y8611D1*
X20290Y8516D1*
Y8650D1*
X20077Y10155D2*
X19981D1*
X19972Y10069D1*
X19981Y10078D1*
X20010Y10088D1*
X20039D1*
X20067Y10078D1*
X20087Y10059D1*
X20096Y10030D1*
Y10011D1*
X20087Y9983D1*
X20067Y9963D1*
X20039Y9954D1*
X20010D1*
X19981Y9963D1*
X19972Y9973D1*
X19962Y9992D1*
X20273Y10126D2*
X20263Y10145D1*
X20234Y10155D1*
X20215D1*
X20187Y10145D1*
X20167Y10116D1*
X20158Y10069D1*
Y10021D1*
X20167Y9983D1*
X20187Y9963D1*
X20215Y9954D1*
X20225D1*
X20253Y9963D1*
X20273Y9983D1*
X20282Y10011D1*
Y10021D1*
X20273Y10050D1*
X20253Y10069D1*
X20225Y10078D1*
X20215D1*
X20187Y10069D1*
X20167Y10050D1*
X20158Y10021D1*
X20344Y10155D2*
Y9954D1*
X20440Y10088D2*
X20344Y9992D1*
X20382Y10030D2*
X20449Y9954D1*
X13343Y8898D2*
Y8984D1*
X13333Y9013D1*
X13324Y9023D1*
X13305Y9032D1*
X13286D1*
X13267Y9023D1*
X13257Y9013D1*
X13247Y8984D1*
Y8898D1*
X13448D1*
X13343Y8965D2*
X13448Y9032D1*
Y9132D2*
X13248Y9228D1*
Y9094D1*
X13482Y9290D2*
Y9471D1*
X13286Y9533D2*
X13276Y9552D1*
X13248Y9581D1*
X13448D1*
X13255Y11144D2*
X13159D1*
X13150Y11058D1*
X13159Y11067D1*
X13188Y11077D1*
X13217D1*
X13245Y11067D1*
X13265Y11048D1*
X13274Y11020D1*
Y11001D1*
X13265Y10972D1*
X13245Y10953D1*
X13217Y10943D1*
X13188D1*
X13159Y10953D1*
X13150Y10962D1*
X13140Y10981D1*
X13451Y11115D2*
X13441Y11134D1*
X13412Y11144D1*
X13393D1*
X13365Y11134D1*
X13345Y11106D1*
X13336Y11058D1*
Y11010D1*
X13345Y10972D1*
X13365Y10953D1*
X13393Y10943D1*
X13403D1*
X13431Y10953D1*
X13451Y10972D1*
X13460Y11001D1*
Y11010D1*
X13451Y11039D1*
X13431Y11058D1*
X13403Y11067D1*
X13393D1*
X13365Y11058D1*
X13345Y11039D1*
X13336Y11010D1*
X13522Y11144D2*
Y10943D1*
X13617Y11077D2*
X13522Y10981D1*
X13560Y11020D2*
X13627Y10943D1*
X21729Y10201D2*
Y10287D1*
X21719Y10315D1*
X21710Y10325D1*
X21691Y10335D1*
X21672D1*
X21653Y10325D1*
X21643Y10315D1*
X21633Y10287D1*
Y10201D1*
X21834D1*
X21729Y10268D2*
X21834Y10335D1*
Y10435D2*
X21634Y10530D1*
Y10396D1*
X21868Y10592D2*
Y10774D1*
X21681Y10845D2*
X21672D1*
X21653Y10855D1*
X21643Y10864D1*
X21634Y10883D1*
Y10922D1*
X21643Y10941D1*
X21653Y10950D1*
X21672Y10960D1*
X21691D1*
X21710Y10950D1*
X21739Y10931D1*
X21834Y10836D1*
Y10969D1*
X21303Y11510D2*
Y11414D1*
X21389Y11405D1*
X21379Y11414D1*
X21370Y11443D1*
Y11471D1*
X21379Y11500D1*
X21398Y11519D1*
X21427Y11529D1*
X21446D1*
X21475Y11519D1*
X21494Y11500D1*
X21504Y11471D1*
Y11443D1*
X21494Y11414D1*
X21484Y11405D1*
X21465Y11395D1*
X21331Y11705D2*
X21312Y11696D1*
X21303Y11667D1*
Y11648D1*
X21312Y11619D1*
X21341Y11600D1*
X21389Y11591D1*
X21437D1*
X21475Y11600D1*
X21494Y11619D1*
X21504Y11648D1*
Y11658D1*
X21494Y11686D1*
X21475Y11705D1*
X21446Y11715D1*
X21437D1*
X21408Y11705D1*
X21389Y11686D1*
X21379Y11658D1*
Y11648D1*
X21389Y11619D1*
X21408Y11600D1*
X21437Y11591D1*
X21303Y11777D2*
X21504D1*
X21370Y11872D2*
X21465Y11777D1*
X21427Y11815D2*
X21504Y11882D1*
X7955Y8070D2*
Y8156D1*
X7946Y8185D1*
X7936Y8195D1*
X7917Y8204D1*
X7898D1*
X7879Y8195D1*
X7869Y8185D1*
X7860Y8156D1*
Y8070D1*
X8061D1*
X7955Y8137D2*
X8061Y8204D1*
X7860Y8314D2*
X7869Y8285D1*
X7888Y8276D1*
X7908D1*
X7927Y8285D1*
X7936Y8304D1*
X7946Y8343D1*
X7955Y8371D1*
X7975Y8390D1*
X7994Y8400D1*
X8022D1*
X8041Y8390D1*
X8051Y8381D1*
X8061Y8352D1*
Y8314D1*
X8051Y8285D1*
X8041Y8276D1*
X8022Y8266D1*
X7994D1*
X7975Y8276D1*
X7955Y8295D1*
X7946Y8323D1*
X7936Y8362D1*
X7927Y8381D1*
X7908Y8390D1*
X7888D1*
X7869Y8381D1*
X7860Y8352D1*
Y8314D1*
X8094Y8462D2*
Y8643D1*
X7898Y8705D2*
X7888Y8724D1*
X7860Y8753D1*
X8061D1*
X7940Y10080D2*
X7931Y10099D1*
X7902Y10128D1*
X8103D1*
X7902Y10189D2*
X8103D1*
X7969Y10285D2*
X8065Y10189D1*
X8026Y10228D2*
X8103Y10295D1*
X27063Y10091D2*
Y10177D1*
X27054Y10206D1*
X27044Y10215D1*
X27025Y10225D1*
X27006D1*
X26987Y10215D1*
X26977Y10206D1*
X26968Y10177D1*
Y10091D1*
X27168D1*
X27063Y10158D2*
X27168Y10225D1*
X26968Y10334D2*
X26977Y10306D1*
X26996Y10296D1*
X27016D1*
X27035Y10306D1*
X27044Y10325D1*
X27054Y10363D1*
X27063Y10392D1*
X27082Y10411D1*
X27102Y10420D1*
X27130D1*
X27149Y10411D1*
X27159Y10401D1*
X27168Y10373D1*
Y10334D1*
X27159Y10306D1*
X27149Y10296D1*
X27130Y10287D1*
X27102D1*
X27082Y10296D1*
X27063Y10315D1*
X27054Y10344D1*
X27044Y10382D1*
X27035Y10401D1*
X27016Y10411D1*
X26996D1*
X26977Y10401D1*
X26968Y10373D1*
Y10334D1*
X27202Y10482D2*
Y10664D1*
X27016Y10735D2*
X27006D1*
X26987Y10745D1*
X26977Y10754D1*
X26968Y10774D1*
Y10812D1*
X26977Y10831D1*
X26987Y10840D1*
X27006Y10850D1*
X27025D1*
X27044Y10840D1*
X27073Y10821D1*
X27168Y10726D1*
Y10860D1*
X27021Y12169D2*
X27011Y12188D1*
X26982Y12217D1*
X27183D1*
X26982Y12279D2*
X27183D1*
X27049Y12374D2*
X27145Y12279D1*
X27107Y12317D2*
X27183Y12384D1*
X6746Y10423D2*
X6832D1*
X6860Y10433D1*
X6870Y10442D1*
X6880Y10461D1*
Y10480D1*
X6870Y10499D1*
X6860Y10509D1*
X6832Y10519D1*
X6746D1*
Y10318D1*
X6813Y10423D2*
X6880Y10318D1*
X7066Y10452D2*
X7056Y10423D1*
X7037Y10404D1*
X7008Y10394D1*
X6999D1*
X6970Y10404D1*
X6951Y10423D1*
X6941Y10452D1*
Y10461D1*
X6951Y10490D1*
X6970Y10509D1*
X6999Y10518D1*
X7008D1*
X7037Y10509D1*
X7056Y10490D1*
X7066Y10452D1*
Y10404D1*
X7056Y10356D1*
X7037Y10327D1*
X7008Y10318D1*
X6989D1*
X6961Y10327D1*
X6951Y10346D1*
X7128Y10285D2*
X7309D1*
X7371Y10480D2*
X7390Y10490D1*
X7419Y10518D1*
Y10318D1*
X7056Y10155D2*
X7076Y10164D1*
X7104Y10193D1*
Y9992D1*
X27584Y10767D2*
X27670D1*
X27699Y10776D1*
X27709Y10786D1*
X27718Y10805D1*
Y10824D1*
X27709Y10843D1*
X27699Y10853D1*
X27670Y10862D1*
X27584D1*
Y10661D1*
X27651Y10767D2*
X27718Y10661D1*
X27904Y10795D2*
X27895Y10767D1*
X27876Y10747D1*
X27847Y10738D1*
X27837D1*
X27809Y10747D1*
X27790Y10767D1*
X27780Y10795D1*
Y10805D1*
X27790Y10834D1*
X27809Y10853D1*
X27837Y10862D1*
X27847D1*
X27876Y10853D1*
X27895Y10834D1*
X27904Y10795D1*
Y10747D1*
X27895Y10700D1*
X27876Y10671D1*
X27847Y10661D1*
X27828D1*
X27799Y10671D1*
X27790Y10690D1*
X27966Y10628D2*
X28148D1*
X28219Y10814D2*
Y10824D1*
X28229Y10843D1*
X28238Y10853D1*
X28257Y10862D1*
X28296D1*
X28315Y10853D1*
X28324Y10843D1*
X28334Y10824D1*
Y10805D1*
X28324Y10786D1*
X28305Y10757D1*
X28210Y10661D1*
X28343D1*
X27938Y10474D2*
X27957Y10484D1*
X27986Y10512D1*
Y10312D1*
X23686Y5091D2*
X23772D1*
X23800Y5101D1*
X23810Y5110D1*
X23820Y5129D1*
Y5149D1*
X23810Y5168D1*
X23800Y5177D1*
X23772Y5187D1*
X23686D1*
Y4986D1*
X23753Y5091D2*
X23820Y4986D1*
X23881Y5062D2*
X23996D1*
Y5082D1*
X23987Y5101D1*
X23977Y5110D1*
X23958Y5120D1*
X23929D1*
X23910Y5110D1*
X23891Y5091D1*
X23881Y5062D1*
Y5043D1*
X23891Y5015D1*
X23910Y4996D1*
X23929Y4986D1*
X23958D1*
X23977Y4996D1*
X23996Y5015D1*
X24163Y5091D2*
X24154Y5110D1*
X24125Y5120D1*
X24096D1*
X24067Y5110D1*
X24058Y5091D1*
X24067Y5072D1*
X24087Y5062D1*
X24134Y5053D1*
X24154Y5043D1*
X24163Y5024D1*
Y5015D1*
X24154Y4996D1*
X24125Y4986D1*
X24096D1*
X24067Y4996D1*
X24058Y5015D1*
X24225Y5062D2*
X24340D1*
Y5082D1*
X24330Y5101D1*
X24320Y5110D1*
X24301Y5120D1*
X24273D1*
X24254Y5110D1*
X24234Y5091D1*
X24225Y5062D1*
Y5043D1*
X24234Y5015D1*
X24254Y4996D1*
X24273Y4986D1*
X24301D1*
X24320Y4996D1*
X24340Y5015D1*
X24430Y5187D2*
Y5024D1*
X24440Y4996D1*
X24459Y4986D1*
X24478D1*
X24401Y5120D2*
X24468D1*
X21217Y14458D2*
X21198Y14477D1*
X21169Y14487D1*
X21131D1*
X21102Y14477D1*
X21083Y14458D1*
Y14439D1*
X21092Y14420D1*
X21102Y14410D1*
X21121Y14401D1*
X21178Y14382D1*
X21198Y14372D1*
X21207Y14362D1*
X21217Y14343D1*
Y14315D1*
X21198Y14296D1*
X21169Y14286D1*
X21131D1*
X21102Y14296D1*
X21083Y14315D1*
X21345Y14487D2*
Y14286D1*
X21278Y14487D2*
X21412D1*
X21627Y14286D2*
X21551Y14487D1*
X21474Y14286D1*
X21503Y14353D2*
X21599D1*
X21756Y14487D2*
Y14286D1*
X21689Y14487D2*
X21823D1*
X21885D2*
Y14343D1*
X21894Y14315D1*
X21913Y14296D1*
X21942Y14286D1*
X21961D1*
X21990Y14296D1*
X22009Y14315D1*
X22019Y14343D1*
Y14487D1*
X22214Y14458D2*
X22195Y14477D1*
X22167Y14487D1*
X22128D1*
X22100Y14477D1*
X22080Y14458D1*
Y14439D1*
X22090Y14420D1*
X22100Y14410D1*
X22119Y14401D1*
X22176Y14382D1*
X22195Y14372D1*
X22205Y14362D1*
X22214Y14343D1*
Y14315D1*
X22195Y14296D1*
X22167Y14286D1*
X22128D1*
X22100Y14296D1*
X22080Y14315D1*
X19543Y13915D2*
X19629D1*
X19658Y13924D1*
X19668Y13934D1*
X19677Y13953D1*
Y13972D1*
X19668Y13991D1*
X19658Y14001D1*
X19629Y14010D1*
X19543D1*
Y13809D1*
X19610Y13915D2*
X19677Y13809D1*
X19863Y14010D2*
X19739D1*
Y13809D1*
X19863D1*
X19739Y13915D2*
X19816D1*
X19925Y14010D2*
Y13809D1*
X19992D1*
X20021Y13819D1*
X20040Y13838D1*
X20050Y13857D1*
X20059Y13886D1*
Y13934D1*
X20050Y13963D1*
X20040Y13982D1*
X20021Y14001D1*
X19992Y14010D1*
X19925D1*
X20140Y13819D2*
X20130Y13809D1*
X20121Y13819D1*
X20130Y13829D1*
X20140Y13819D1*
Y13800D1*
X20130Y13781D1*
X20121Y13771D1*
X20202Y13972D2*
X20221Y13982D1*
X20250Y14010D1*
Y13809D1*
X20369Y14010D2*
X20340Y14001D1*
X20321Y13972D1*
X20312Y13924D1*
Y13895D1*
X20321Y13848D1*
X20340Y13819D1*
X20369Y13809D1*
X20388D1*
X20417Y13819D1*
X20436Y13848D1*
X20446Y13895D1*
Y13924D1*
X20436Y13972D1*
X20417Y14001D1*
X20388Y14010D1*
X20369D1*
X20436Y13972D2*
X20321Y13848D1*
X20507Y13943D2*
Y13809D1*
Y13905D2*
X20536Y13934D1*
X20555Y13943D1*
X20584D1*
X20603Y13934D1*
X20613Y13905D1*
Y13809D1*
Y13905D2*
X20641Y13934D1*
X20661Y13943D1*
X20689D1*
X20708Y13934D1*
X20718Y13905D1*
Y13809D1*
X20933D2*
X20856Y14010D1*
X20780Y13809D1*
X20809Y13876D2*
X20904D1*
X14126Y16066D2*
Y15922D1*
X14135Y15893D1*
X14154Y15874D1*
X14183Y15865D1*
X14202D1*
X14231Y15874D1*
X14250Y15893D1*
X14260Y15922D1*
Y16066D1*
X14321Y16027D2*
X14341Y16037D1*
X14369Y16065D1*
Y15865D1*
X13986Y14307D2*
Y14508D1*
X13909Y14307D1*
X13833Y14508D1*
Y14307D1*
X14191Y14460D2*
X14181Y14479D1*
X14162Y14498D1*
X14143Y14508D1*
X14105D1*
X14086Y14498D1*
X14067Y14479D1*
X14057Y14460D1*
X14047Y14431D1*
Y14383D1*
X14057Y14355D1*
X14067Y14336D1*
X14086Y14317D1*
X14105Y14307D1*
X14143D1*
X14162Y14317D1*
X14181Y14336D1*
X14191Y14355D1*
X14253Y14403D2*
X14339D1*
X14367Y14412D1*
X14377Y14422D1*
X14387Y14441D1*
Y14470D1*
X14377Y14489D1*
X14367Y14498D1*
X14339Y14508D1*
X14253D1*
Y14307D1*
X14448Y14469D2*
X14468Y14479D1*
X14496Y14508D1*
Y14307D1*
X14606Y14508D2*
X14577Y14498D1*
X14568Y14479D1*
Y14460D1*
X14577Y14441D1*
X14596Y14431D1*
X14635Y14422D1*
X14663Y14412D1*
X14682Y14393D1*
X14692Y14374D1*
Y14345D1*
X14682Y14326D1*
X14673Y14316D1*
X14644Y14307D1*
X14606D1*
X14577Y14316D1*
X14568Y14326D1*
X14558Y14345D1*
Y14374D1*
X14568Y14393D1*
X14587Y14412D1*
X14615Y14422D1*
X14654Y14431D1*
X14673Y14441D1*
X14682Y14460D1*
Y14479D1*
X14673Y14498D1*
X14644Y14508D1*
X14606D1*
X14811D2*
X14782Y14498D1*
X14763Y14469D1*
X14754Y14422D1*
Y14393D1*
X14763Y14345D1*
X14782Y14316D1*
X14811Y14307D1*
X14830D1*
X14859Y14316D1*
X14878Y14345D1*
X14888Y14393D1*
Y14422D1*
X14878Y14469D1*
X14859Y14498D1*
X14830Y14508D1*
X14811D1*
X14878Y14469D2*
X14763Y14345D1*
X15045Y14307D2*
Y14508D1*
X14949Y14374D1*
X15093D1*
X15222Y14508D2*
Y14307D1*
X15155Y14508D2*
X15289D1*
X20109Y11785D2*
X20252D1*
X20281Y11794D1*
X20300Y11813D1*
X20310Y11842D1*
Y11861D1*
X20300Y11890D1*
X20281Y11909D1*
X20252Y11918D1*
X20109D1*
X20157Y11990D2*
X20147D1*
X20128Y11999D1*
X20118Y12009D1*
X20109Y12028D1*
Y12066D1*
X20118Y12085D1*
X20128Y12095D1*
X20147Y12105D1*
X20166D1*
X20185Y12095D1*
X20214Y12076D1*
X20310Y11980D1*
Y12114D1*
X16840Y9897D2*
X16926D1*
X16955Y9906D1*
X16964Y9916D1*
X16974Y9935D1*
Y9964D1*
X16964Y9983D1*
X16955Y9992D1*
X16926Y10002D1*
X16840D1*
Y9801D1*
X17036Y10002D2*
Y9801D1*
X17241Y9954D2*
X17231Y9973D1*
X17212Y9992D1*
X17193Y10002D1*
X17155D1*
X17136Y9992D1*
X17117Y9973D1*
X17107Y9954D1*
X17097Y9925D1*
Y9877D1*
X17107Y9849D1*
X17117Y9830D1*
X17136Y9811D1*
X17155Y9801D1*
X17193D1*
X17212Y9811D1*
X17231Y9830D1*
X17241Y9849D1*
X17303Y9963D2*
X17322Y9973D1*
X17351Y10002D1*
Y9801D1*
X17460Y10002D2*
X17432Y9992D1*
X17422Y9973D1*
Y9954D1*
X17432Y9935D1*
X17451Y9925D1*
X17489Y9916D1*
X17518Y9906D1*
X17537Y9887D1*
X17546Y9868D1*
Y9839D1*
X17537Y9820D1*
X17527Y9810D1*
X17498Y9801D1*
X17460D1*
X17432Y9810D1*
X17422Y9820D1*
X17412Y9839D1*
Y9868D1*
X17422Y9887D1*
X17441Y9906D1*
X17470Y9916D1*
X17508Y9925D1*
X17527Y9935D1*
X17537Y9954D1*
Y9973D1*
X17527Y9992D1*
X17498Y10002D1*
X17460D1*
X17732D2*
X17608D1*
Y9801D1*
Y9906D2*
X17684D1*
X17804Y9954D2*
Y9963D1*
X17813Y9983D1*
X17823Y9992D1*
X17842Y10002D1*
X17880D1*
X17899Y9992D1*
X17909Y9983D1*
X17918Y9963D1*
Y9944D1*
X17909Y9925D1*
X17890Y9897D1*
X17794Y9801D1*
X17928D1*
X18104Y9973D2*
X18095Y9992D1*
X18066Y10002D1*
X18047D1*
X18018Y9992D1*
X17999Y9963D1*
X17990Y9916D1*
Y9868D1*
X17999Y9830D1*
X18018Y9810D1*
X18047Y9801D1*
X18057D1*
X18085Y9810D1*
X18104Y9830D1*
X18114Y9858D1*
Y9868D1*
X18104Y9897D1*
X18085Y9916D1*
X18057Y9925D1*
X18047D1*
X18018Y9916D1*
X17999Y9897D1*
X17990Y9868D1*
X18176Y10002D2*
Y9801D1*
X18310Y10002D2*
X18176Y9868D1*
X18223Y9916D2*
X18310Y9801D1*
X18419Y10002D2*
X18391Y9992D1*
X18381Y9973D1*
Y9954D1*
X18391Y9935D1*
X18410Y9925D1*
X18448Y9916D1*
X18477Y9906D1*
X18496Y9887D1*
X18505Y9868D1*
Y9839D1*
X18496Y9820D1*
X18486Y9810D1*
X18457Y9801D1*
X18419D1*
X18391Y9810D1*
X18381Y9820D1*
X18371Y9839D1*
Y9868D1*
X18381Y9887D1*
X18400Y9906D1*
X18429Y9916D1*
X18467Y9925D1*
X18486Y9935D1*
X18496Y9954D1*
Y9973D1*
X18486Y9992D1*
X18457Y10002D1*
X18419D1*
X18624D2*
X18596Y9992D1*
X18576Y9963D1*
X18567Y9916D1*
Y9887D1*
X18576Y9839D1*
X18596Y9810D1*
X18624Y9801D1*
X18643D1*
X18672Y9810D1*
X18691Y9839D1*
X18701Y9887D1*
Y9916D1*
X18691Y9963D1*
X18672Y9992D1*
X18643Y10002D1*
X18624D1*
X18691Y9963D2*
X18576Y9839D1*
X10338Y14744D2*
Y14601D1*
X10348Y14572D1*
X10367Y14553D1*
X10396Y14543D1*
X10415D1*
X10444Y14553D1*
X10463Y14572D1*
X10472Y14601D1*
Y14744D1*
X10630Y14543D2*
Y14744D1*
X10534Y14610D1*
X10678D1*
X10739Y14510D2*
X10921D1*
X10983Y14706D2*
X11002Y14716D1*
X11031Y14744D1*
Y14543D1*
X10141Y14127D2*
Y14328D1*
X10064Y14127D1*
X9988Y14328D1*
Y14127D1*
X10270Y14328D2*
Y14127D1*
X10203Y14328D2*
X10337D1*
X10532Y14299D2*
X10513Y14318D1*
X10485Y14328D1*
X10446D1*
X10418Y14318D1*
X10398Y14299D1*
Y14280D1*
X10408Y14261D1*
X10418Y14251D1*
X10437Y14242D1*
X10494Y14223D1*
X10513Y14213D1*
X10523Y14203D1*
X10532Y14184D1*
Y14156D1*
X10513Y14137D1*
X10485Y14127D1*
X10446D1*
X10418Y14137D1*
X10398Y14156D1*
X10604Y14280D2*
Y14289D1*
X10613Y14309D1*
X10623Y14318D1*
X10642Y14328D1*
X10680D1*
X10699Y14318D1*
X10709Y14309D1*
X10719Y14289D1*
Y14270D1*
X10709Y14251D1*
X10690Y14223D1*
X10594Y14127D1*
X10728D1*
X10914Y14261D2*
X10905Y14232D1*
X10886Y14213D1*
X10857Y14203D1*
X10847D1*
X10819Y14213D1*
X10800Y14232D1*
X10790Y14261D1*
Y14270D1*
X10800Y14299D1*
X10819Y14318D1*
X10847Y14328D1*
X10857D1*
X10886Y14318D1*
X10905Y14299D1*
X10914Y14261D1*
Y14213D1*
X10905Y14165D1*
X10886Y14136D1*
X10857Y14127D1*
X10838D1*
X10809Y14136D1*
X10800Y14156D1*
X10976Y14289D2*
X10995Y14299D1*
X11024Y14328D1*
Y14127D1*
X11201Y14299D2*
X11191Y14318D1*
X11162Y14328D1*
X11143D1*
X11115Y14318D1*
X11095Y14289D1*
X11086Y14242D1*
Y14194D1*
X11095Y14156D1*
X11115Y14136D1*
X11143Y14127D1*
X11153D1*
X11181Y14136D1*
X11201Y14156D1*
X11210Y14184D1*
Y14194D1*
X11201Y14223D1*
X11181Y14242D1*
X11153Y14251D1*
X11143D1*
X11115Y14242D1*
X11095Y14223D1*
X11086Y14194D1*
X11425Y14127D2*
X11348Y14328D1*
X11272Y14127D1*
X11301Y14194D2*
X11396D1*
X23827Y6837D2*
Y6693D1*
X23837Y6665D1*
X23856Y6646D1*
X23885Y6636D1*
X23904D1*
X23932Y6646D1*
X23952Y6665D1*
X23961Y6693D1*
Y6837D1*
X24119Y6636D2*
Y6837D1*
X24023Y6703D1*
X24166D1*
X24228Y6603D2*
X24410D1*
X24481Y6789D2*
Y6798D1*
X24491Y6818D1*
X24500Y6827D1*
X24520Y6837D1*
X24558D1*
X24577Y6827D1*
X24586Y6818D1*
X24596Y6798D1*
Y6779D1*
X24586Y6760D1*
X24567Y6732D1*
X24472Y6636D1*
X24606D1*
X23637Y6291D2*
Y6492D1*
X23560Y6291D1*
X23484Y6492D1*
Y6291D1*
X23766Y6492D2*
Y6291D1*
X23699Y6492D2*
X23833D1*
X24028Y6463D2*
X24009Y6483D1*
X23981Y6492D1*
X23942D1*
X23914Y6483D1*
X23894Y6463D1*
Y6444D1*
X23904Y6425D1*
X23914Y6416D1*
X23933Y6406D1*
X23990Y6387D1*
X24009Y6377D1*
X24019Y6368D1*
X24028Y6349D1*
Y6320D1*
X24009Y6301D1*
X23981Y6291D1*
X23942D1*
X23914Y6301D1*
X23894Y6320D1*
X24100Y6444D2*
Y6454D1*
X24109Y6473D1*
X24119Y6482D1*
X24138Y6492D1*
X24176D1*
X24195Y6482D1*
X24205Y6473D1*
X24215Y6454D1*
Y6435D1*
X24205Y6415D1*
X24186Y6387D1*
X24090Y6291D1*
X24224D1*
X24410Y6425D2*
X24401Y6396D1*
X24382Y6377D1*
X24353Y6368D1*
X24343D1*
X24315Y6377D1*
X24296Y6396D1*
X24286Y6425D1*
Y6435D1*
X24296Y6463D1*
X24315Y6482D1*
X24343Y6492D1*
X24353D1*
X24382Y6482D1*
X24401Y6463D1*
X24410Y6425D1*
Y6377D1*
X24401Y6329D1*
X24382Y6301D1*
X24353Y6291D1*
X24334D1*
X24305Y6301D1*
X24296Y6320D1*
X24472Y6454D2*
X24491Y6463D1*
X24520Y6492D1*
Y6291D1*
X24696Y6463D2*
X24687Y6482D1*
X24658Y6492D1*
X24639D1*
X24610Y6482D1*
X24591Y6454D1*
X24582Y6406D1*
Y6358D1*
X24591Y6320D1*
X24610Y6301D1*
X24639Y6291D1*
X24649D1*
X24677Y6301D1*
X24696Y6320D1*
X24706Y6349D1*
Y6358D1*
X24696Y6387D1*
X24677Y6406D1*
X24649Y6415D1*
X24639D1*
X24610Y6406D1*
X24591Y6387D1*
X24582Y6358D1*
X24921Y6291D2*
X24844Y6492D1*
X24768Y6291D1*
X24796Y6358D2*
X24892D1*
X22963Y18311D2*
D33*
Y17306D1*
X23394D1*
X23538Y17354D1*
X23585Y17402D1*
X23633Y17497D1*
Y17641D1*
X23585Y17737D1*
X23538Y17784D1*
X23394Y17832D1*
X23538Y17881D1*
X23585Y17928D1*
X23633Y18023D1*
Y18119D1*
X23585Y18214D1*
X23538Y18263D1*
X23394Y18311D1*
X22963D1*
Y17832D2*
X23394D1*
X24659Y18072D2*
X24611Y18167D1*
X24515Y18263D1*
X24420Y18311D1*
X24229D1*
X24133Y18263D1*
X24038Y18167D1*
X23989Y18072D1*
X23942Y17928D1*
Y17688D1*
X23989Y17546D1*
X24038Y17449D1*
X24133Y17354D1*
X24229Y17306D1*
X24420D1*
X24515Y17354D1*
X24611Y17449D1*
X24659Y17546D1*
X25255Y18311D2*
X25159Y18263D1*
X25064Y18167D1*
X25015Y18072D1*
X24968Y17928D1*
Y17688D1*
X25015Y17546D1*
X25064Y17449D1*
X25159Y17354D1*
X25255Y17306D1*
X25446D1*
X25541Y17354D1*
X25638Y17449D1*
X25685Y17546D1*
X25733Y17688D1*
Y17928D1*
X25685Y18072D1*
X25638Y18167D1*
X25541Y18263D1*
X25446Y18311D1*
X25255D1*
X26041D2*
Y17306D1*
X26376D1*
X26520Y17354D1*
X26616Y17449D1*
X26664Y17546D1*
X26711Y17688D1*
Y17928D1*
X26664Y18072D1*
X26616Y18167D1*
X26520Y18263D1*
X26376Y18311D1*
X26041D1*
X27594Y16030D2*
D76*
X28130Y16260D1*
X27594Y16489D1*
X27518Y16775D2*
X27480D1*
X27403Y16813D1*
X27365Y16851D1*
X27327Y16928D1*
Y17081D1*
X27365Y17157D1*
X27403Y17195D1*
X27480Y17234D1*
X27556D1*
X27633Y17195D1*
X27747Y17119D1*
X28130Y16736D1*
Y17272D1*
X28053Y17557D2*
X28092Y17519D1*
X28130Y17557D1*
X28092Y17596D1*
X28053Y17557D1*
X27518Y17882D2*
X27480D1*
X27403Y17920D1*
X27365Y17958D1*
X27327Y18035D1*
Y18188D1*
X27365Y18264D1*
X27403Y18302D1*
X27480Y18340D1*
X27556D1*
X27633Y18302D1*
X27747Y18226D1*
X28130Y17843D1*
Y18379D1*
M02*
